<svg width="989" height="335" viewBox="0 0 989 335" fill="none" xmlns="http://www.w3.org/2000/svg">
<g id="Home">
<path id="name" d="M270.781 269.5H263.625V315H269.25V296.844L268.781 278.5L276.5 302.344H279.812L288.219 277.844L287.75 296.844V315H293.375V269.5H286.188L278.188 292.25L270.781 269.5ZM324.594 303.219L328.188 315H333.938L319.5 269.5H314.656L299.969 315H305.75L309.406 303.219H324.594ZM310.969 298.188L317.062 278.438L323.062 298.188H310.969ZM310.688 260.875C310.688 261.771 310.854 262.594 311.188 263.344C311.542 264.094 312.01 264.729 312.594 265.25C313.156 265.792 313.823 266.208 314.594 266.5C315.385 266.792 316.219 266.938 317.094 266.938C317.969 266.938 318.781 266.792 319.531 266.5C320.302 266.208 320.979 265.792 321.562 265.25C322.125 264.729 322.573 264.094 322.906 263.344C323.24 262.594 323.406 261.771 323.406 260.875C323.406 259.979 323.24 259.156 322.906 258.406C322.573 257.635 322.125 256.969 321.562 256.406C320.979 255.865 320.302 255.438 319.531 255.125C318.781 254.812 317.969 254.656 317.094 254.656C316.219 254.656 315.385 254.812 314.594 255.125C313.823 255.438 313.156 255.865 312.594 256.406C312.01 256.969 311.542 257.635 311.188 258.406C310.854 259.156 310.688 259.979 310.688 260.875ZM313.781 260.875C313.781 260.354 313.875 259.885 314.062 259.469C314.25 259.031 314.5 258.656 314.812 258.344C315.104 258.073 315.448 257.865 315.844 257.719C316.24 257.552 316.656 257.469 317.094 257.469C317.552 257.469 317.969 257.552 318.344 257.719C318.74 257.865 319.083 258.083 319.375 258.375C319.667 258.688 319.896 259.062 320.062 259.5C320.229 259.917 320.312 260.375 320.312 260.875C320.312 261.354 320.229 261.792 320.062 262.188C319.896 262.583 319.667 262.927 319.375 263.219C319.083 263.51 318.74 263.74 318.344 263.906C317.969 264.073 317.552 264.156 317.094 264.156C316.635 264.156 316.208 264.073 315.812 263.906C315.417 263.74 315.073 263.5 314.781 263.188C314.469 262.896 314.219 262.552 314.031 262.156C313.865 261.76 313.781 261.333 313.781 260.875ZM369.812 315V269.5H363.969L363.875 303.438L346.219 269.5H340.344V315H346.188L346.281 281L363.938 315H369.812ZM403.562 303.5C403.562 304.75 403.292 305.833 402.75 306.75C402.208 307.646 401.51 308.385 400.656 308.969C399.802 309.573 398.823 310.021 397.719 310.312C396.635 310.583 395.531 310.719 394.406 310.719C392.99 310.719 391.677 310.531 390.469 310.156C389.281 309.76 388.229 309.177 387.312 308.406C386.396 307.656 385.646 306.74 385.062 305.656C384.479 304.552 384.094 303.292 383.906 301.875H378C378.062 303.833 378.49 305.615 379.281 307.219C380.094 308.802 381.188 310.188 382.562 311.375C384.104 312.75 385.917 313.802 388 314.531C390.104 315.26 392.24 315.625 394.406 315.625C396.219 315.625 398.031 315.375 399.844 314.875C401.656 314.354 403.281 313.583 404.719 312.562C406.156 311.562 407.323 310.302 408.219 308.781C409.135 307.26 409.594 305.479 409.594 303.438C409.594 301.417 409.167 299.635 408.312 298.094C407.479 296.552 406.375 295.25 405 294.188C403.604 293.042 402.062 292.104 400.375 291.375C398.688 290.625 397 289.99 395.312 289.469C394.292 289.156 393.198 288.792 392.031 288.375C390.885 287.958 389.823 287.438 388.844 286.812C387.844 286.188 387.021 285.427 386.375 284.531C385.729 283.615 385.396 282.5 385.375 281.188C385.375 279.979 385.615 278.917 386.094 278C386.594 277.083 387.26 276.312 388.094 275.688C388.906 275.062 389.833 274.594 390.875 274.281C391.938 273.969 393.021 273.812 394.125 273.812C395.5 273.812 396.729 274.031 397.812 274.469C398.917 274.885 399.865 275.479 400.656 276.25C401.448 277.021 402.083 277.948 402.562 279.031C403.042 280.094 403.365 281.281 403.531 282.594H409.469C409.427 280.51 408.979 278.625 408.125 276.938C407.271 275.25 406.135 273.812 404.719 272.625C403.302 271.438 401.677 270.521 399.844 269.875C398.01 269.208 396.104 268.875 394.125 268.875C392.333 268.875 390.552 269.156 388.781 269.719C387.01 270.26 385.427 271.062 384.031 272.125C382.635 273.188 381.5 274.49 380.625 276.031C379.771 277.573 379.344 279.323 379.344 281.281C379.344 283.24 379.771 284.948 380.625 286.406C381.5 287.844 382.625 289.094 384 290.156C385.354 291.198 386.854 292.094 388.5 292.844C390.167 293.573 391.802 294.198 393.406 294.719C394.51 295.073 395.656 295.469 396.844 295.906C398.052 296.344 399.156 296.885 400.156 297.531C401.156 298.198 401.969 299.01 402.594 299.969C403.24 300.927 403.562 302.104 403.562 303.5ZM477.969 269.5V301.156C477.927 302.448 477.698 303.677 477.281 304.844C476.885 305.99 476.312 307 475.562 307.875C474.792 308.75 473.865 309.448 472.781 309.969C471.698 310.469 470.469 310.719 469.094 310.719C467.76 310.719 466.552 310.5 465.469 310.062C464.406 309.625 463.49 309 462.719 308.188C461.948 307.396 461.333 306.458 460.875 305.375C460.438 304.292 460.188 303.115 460.125 301.844H454.25C454.438 303.948 454.917 305.854 455.688 307.562C456.458 309.25 457.49 310.688 458.781 311.875C460.052 313.083 461.552 314.01 463.281 314.656C465.031 315.302 466.969 315.625 469.094 315.625C471.198 315.625 473.135 315.271 474.906 314.562C476.698 313.833 478.25 312.823 479.562 311.531C480.875 310.26 481.906 308.74 482.656 306.969C483.427 305.198 483.833 303.26 483.875 301.156V269.5H477.969ZM516.781 303.219L520.375 315H526.125L511.688 269.5H506.844L492.156 315H497.938L501.594 303.219H516.781ZM503.156 298.188L509.25 278.438L515.25 298.188H503.156ZM562.969 301.312H557.188C557 302.688 556.677 303.969 556.219 305.156C555.76 306.323 555.146 307.333 554.375 308.188C553.604 309.062 552.656 309.74 551.531 310.219C550.427 310.698 549.115 310.938 547.594 310.938C546.198 310.938 544.979 310.719 543.938 310.281C542.896 309.823 541.99 309.198 541.219 308.406C540.448 307.635 539.812 306.74 539.312 305.719C538.812 304.698 538.406 303.604 538.094 302.438C537.781 301.292 537.552 300.125 537.406 298.938C537.281 297.729 537.219 296.562 537.219 295.438V289.031C537.219 287.906 537.281 286.75 537.406 285.562C537.552 284.354 537.781 283.177 538.094 282.031C538.406 280.885 538.812 279.802 539.312 278.781C539.833 277.76 540.479 276.865 541.25 276.094C542 275.323 542.896 274.719 543.938 274.281C545 273.823 546.219 273.594 547.594 273.594C549.115 273.594 550.427 273.854 551.531 274.375C552.656 274.875 553.604 275.573 554.375 276.469C555.146 277.365 555.76 278.406 556.219 279.594C556.677 280.781 557 282.062 557.188 283.438H562.969C562.719 281.271 562.198 279.292 561.406 277.5C560.635 275.708 559.604 274.167 558.312 272.875C557.021 271.604 555.479 270.625 553.688 269.938C551.896 269.229 549.865 268.875 547.594 268.875C545.698 268.875 543.99 269.146 542.469 269.688C540.948 270.208 539.594 270.938 538.406 271.875C537.198 272.812 536.156 273.927 535.281 275.219C534.427 276.49 533.719 277.875 533.156 279.375C532.573 280.875 532.135 282.448 531.844 284.094C531.573 285.74 531.427 287.406 531.406 289.094V295.438C531.427 297.125 531.573 298.792 531.844 300.438C532.135 302.083 532.573 303.656 533.156 305.156C533.719 306.656 534.427 308.042 535.281 309.312C536.156 310.583 537.198 311.688 538.406 312.625C539.594 313.562 540.948 314.302 542.469 314.844C544.01 315.365 545.719 315.625 547.594 315.625C549.781 315.625 551.76 315.281 553.531 314.594C555.323 313.885 556.875 312.896 558.188 311.625C559.479 310.375 560.531 308.875 561.344 307.125C562.156 305.354 562.698 303.417 562.969 301.312ZM582.844 293.875L596.594 315H603.625L586.656 289.406L602.562 269.5H595.531L582.188 286.219L577.781 291.719V269.5H571.875V315H577.781V299.625L582.844 293.875ZM634.188 303.5C634.188 304.75 633.917 305.833 633.375 306.75C632.833 307.646 632.135 308.385 631.281 308.969C630.427 309.573 629.448 310.021 628.344 310.312C627.26 310.583 626.156 310.719 625.031 310.719C623.615 310.719 622.302 310.531 621.094 310.156C619.906 309.76 618.854 309.177 617.938 308.406C617.021 307.656 616.271 306.74 615.688 305.656C615.104 304.552 614.719 303.292 614.531 301.875H608.625C608.688 303.833 609.115 305.615 609.906 307.219C610.719 308.802 611.812 310.188 613.188 311.375C614.729 312.75 616.542 313.802 618.625 314.531C620.729 315.26 622.865 315.625 625.031 315.625C626.844 315.625 628.656 315.375 630.469 314.875C632.281 314.354 633.906 313.583 635.344 312.562C636.781 311.562 637.948 310.302 638.844 308.781C639.76 307.26 640.219 305.479 640.219 303.438C640.219 301.417 639.792 299.635 638.938 298.094C638.104 296.552 637 295.25 635.625 294.188C634.229 293.042 632.688 292.104 631 291.375C629.312 290.625 627.625 289.99 625.938 289.469C624.917 289.156 623.823 288.792 622.656 288.375C621.51 287.958 620.448 287.438 619.469 286.812C618.469 286.188 617.646 285.427 617 284.531C616.354 283.615 616.021 282.5 616 281.188C616 279.979 616.24 278.917 616.719 278C617.219 277.083 617.885 276.312 618.719 275.688C619.531 275.062 620.458 274.594 621.5 274.281C622.562 273.969 623.646 273.812 624.75 273.812C626.125 273.812 627.354 274.031 628.438 274.469C629.542 274.885 630.49 275.479 631.281 276.25C632.073 277.021 632.708 277.948 633.188 279.031C633.667 280.094 633.99 281.281 634.156 282.594H640.094C640.052 280.51 639.604 278.625 638.75 276.938C637.896 275.25 636.76 273.812 635.344 272.625C633.927 271.438 632.302 270.521 630.469 269.875C628.635 269.208 626.729 268.875 624.75 268.875C622.958 268.875 621.177 269.156 619.406 269.719C617.635 270.26 616.052 271.062 614.656 272.125C613.26 273.188 612.125 274.49 611.25 276.031C610.396 277.573 609.969 279.323 609.969 281.281C609.969 283.24 610.396 284.948 611.25 286.406C612.125 287.844 613.25 289.094 614.625 290.156C615.979 291.198 617.479 292.094 619.125 292.844C620.792 293.573 622.427 294.198 624.031 294.719C625.135 295.073 626.281 295.469 627.469 295.906C628.677 296.344 629.781 296.885 630.781 297.531C631.781 298.198 632.594 299.01 633.219 299.969C633.865 300.927 634.188 302.104 634.188 303.5ZM678.406 294.875V289.688C678.385 288.062 678.24 286.417 677.969 284.75C677.719 283.083 677.323 281.479 676.781 279.938C676.219 278.396 675.51 276.958 674.656 275.625C673.823 274.271 672.823 273.094 671.656 272.094C670.49 271.094 669.146 270.312 667.625 269.75C666.104 269.167 664.406 268.875 662.531 268.875C660.656 268.875 658.958 269.167 657.438 269.75C655.938 270.312 654.604 271.094 653.438 272.094C652.271 273.115 651.26 274.302 650.406 275.656C649.573 276.99 648.885 278.427 648.344 279.969C647.781 281.51 647.365 283.115 647.094 284.781C646.844 286.427 646.708 288.062 646.688 289.688V294.875C646.708 296.5 646.854 298.135 647.125 299.781C647.396 301.427 647.812 303.021 648.375 304.562C648.917 306.104 649.615 307.552 650.469 308.906C651.323 310.24 652.333 311.406 653.5 312.406C654.667 313.406 656 314.198 657.5 314.781C659.021 315.344 660.719 315.625 662.594 315.625C664.469 315.625 666.156 315.344 667.656 314.781C669.177 314.198 670.521 313.406 671.688 312.406C672.854 311.406 673.854 310.24 674.688 308.906C675.542 307.573 676.24 306.135 676.781 304.594C677.323 303.052 677.719 301.458 677.969 299.812C678.24 298.146 678.385 296.5 678.406 294.875ZM672.688 289.625V294.875C672.667 295.958 672.594 297.094 672.469 298.281C672.365 299.469 672.167 300.635 671.875 301.781C671.562 302.948 671.156 304.062 670.656 305.125C670.177 306.167 669.573 307.083 668.844 307.875C668.094 308.688 667.198 309.333 666.156 309.812C665.135 310.292 663.948 310.531 662.594 310.531C661.24 310.531 660.052 310.292 659.031 309.812C658.01 309.333 657.125 308.688 656.375 307.875C655.625 307.083 655 306.156 654.5 305.094C654 304.031 653.594 302.917 653.281 301.75C652.969 300.604 652.74 299.438 652.594 298.25C652.469 297.062 652.396 295.938 652.375 294.875V289.625C652.396 288.562 652.469 287.448 652.594 286.281C652.74 285.094 652.969 283.917 653.281 282.75C653.573 281.604 653.969 280.51 654.469 279.469C654.969 278.406 655.594 277.469 656.344 276.656C657.094 275.865 657.979 275.229 659 274.75C660.021 274.271 661.198 274.031 662.531 274.031C663.885 274.031 665.073 274.271 666.094 274.75C667.115 275.208 668 275.833 668.75 276.625C669.5 277.438 670.125 278.375 670.625 279.438C671.125 280.479 671.531 281.573 671.844 282.719C672.135 283.885 672.344 285.062 672.469 286.25C672.594 287.417 672.667 288.542 672.688 289.625ZM715.75 315V269.5H709.906L709.812 303.438L692.156 269.5H686.281V315H692.125L692.219 281L709.875 315H715.75Z" fill="black"/>
<path id="outline" d="M243.5 287H16.5V16.5H968V287H738.5" stroke="black" stroke-width="4"/>
<g id="handwriting">
<mask id="mask0" mask-type="alpha" maskUnits="userSpaceOnUse" x="46" y="74" width="912" height="174">
<g id="text">
<path d="M78.33 214.051C76.7153 214.051 74.697 213.647 72.275 212.84C69.9683 212.148 67.8923 210.822 66.047 208.861C64.317 206.9 63.452 204.017 63.452 200.211C63.452 196.174 64.4323 190.869 66.393 184.295C68.3537 177.606 70.6027 170.224 73.14 162.151C76.1387 152.809 78.9067 143.006 81.444 132.741C83.9813 122.476 85.25 112.731 85.25 103.504C85.25 99.2367 85.077 95.2577 84.731 91.567C84.5003 87.8763 83.6353 84.9353 82.136 82.744C80.752 80.4373 78.33 79.284 74.87 79.284C71.6407 79.284 68.8727 80.2643 66.566 82.225C64.3747 84.0703 62.5293 86.4923 61.03 89.491C59.646 92.4897 58.608 95.6613 57.916 99.006C57.3393 102.351 57.051 105.465 57.051 108.348C57.051 112.154 57.57 115.268 58.608 117.69C54.11 117.69 50.9383 116.479 49.093 114.057C47.2477 111.52 46.325 108.579 46.325 105.234C46.325 101.659 47.1323 98.0833 48.747 94.508C50.477 90.9327 52.7837 87.6457 55.667 84.647C58.6657 81.533 62.068 79.0533 65.874 77.208C69.68 75.3627 73.7167 74.44 77.984 74.44C85.1347 74.44 90.44 77.2657 93.9 82.917C97.4753 88.453 99.263 95.892 99.263 105.234C99.263 113.653 98.052 122.592 95.63 132.049C93.3233 141.391 90.7284 150.502 87.845 159.383C85.077 168.033 82.5397 176.049 80.233 183.43C78.0417 190.811 76.946 196.982 76.946 201.941C76.946 204.132 77.292 205.805 77.984 206.958C78.676 208.111 80.06 208.688 82.136 208.688C85.0193 208.688 88.191 207.304 91.651 204.536C95.2263 201.883 98.8017 198.25 102.377 193.637C106.068 189.024 109.585 183.949 112.93 178.413C116.39 172.762 119.504 166.995 122.272 161.113C125.155 155.231 127.52 149.637 129.365 144.332C131.326 139.027 132.537 134.471 132.998 130.665C136.804 130.665 139.457 131.645 140.956 133.606C142.571 135.567 143.378 137.412 143.378 139.142C143.378 140.987 142.628 143.813 141.129 147.619C139.63 151.425 137.842 155.692 135.766 160.421C133.113 166.764 130.518 173.569 127.981 180.835C125.444 188.101 124.175 194.963 124.175 201.422C124.175 203.613 124.463 205.343 125.04 206.612C125.617 207.996 126.943 208.688 129.019 208.688C132.248 208.688 135.997 207.016 140.264 203.671C144.531 200.442 148.914 196.001 153.412 190.35C158.025 184.583 162.466 178.125 166.733 170.974C171.116 163.823 175.037 156.384 178.497 148.657C181.957 140.814 184.725 133.145 186.801 125.648C188.877 118.151 189.915 111.231 189.915 104.888C189.915 99.1213 189.05 94.9117 187.32 92.259C185.59 89.491 183.283 87.7033 180.4 86.896C182.015 84.128 183.687 82.1097 185.417 80.841C187.262 79.5723 188.935 78.938 190.434 78.938C192.856 78.938 195.22 80.495 197.527 83.609C199.834 86.723 200.987 91.567 200.987 98.141C200.987 104.484 199.776 111.693 197.354 119.766C195.047 127.839 191.876 136.259 187.839 145.024C183.802 153.674 179.189 162.093 173.999 170.282C168.809 178.471 163.388 185.852 157.737 192.426C152.086 199 146.492 204.248 140.956 208.169C135.42 212.09 130.288 214.051 125.559 214.051C123.368 214.051 121.119 213.59 118.812 212.667C116.505 211.744 114.545 210.303 112.93 208.342C111.431 206.497 110.681 204.075 110.681 201.076C110.681 199.346 110.969 197.155 111.546 194.502C112.238 191.734 113.103 188.735 114.141 185.506C108.259 193.81 102.204 200.615 95.976 205.92C89.8633 211.341 83.9813 214.051 78.33 214.051Z" fill="black"/>
<path d="M212.397 206.612C205.362 206.612 200.056 204.651 196.481 200.73C193.021 196.924 191.291 192.195 191.291 186.544C191.291 181.354 192.56 175.876 195.097 170.109C197.75 164.342 201.21 158.922 205.477 153.847C209.86 148.772 214.646 144.678 219.836 141.564C225.026 138.335 230.158 136.72 235.233 136.72C237.886 136.72 240.308 137.412 242.499 138.796C244.806 140.18 245.959 143.006 245.959 147.273C245.959 151.656 244.633 155.808 241.98 159.729C239.443 163.535 236.04 166.937 231.773 169.936C227.621 172.935 223.008 175.414 217.933 177.375C212.974 179.22 208.014 180.374 203.055 180.835C202.824 181.988 202.651 183.084 202.536 184.122C202.421 185.16 202.363 186.14 202.363 187.063C202.363 190.638 203.286 193.983 205.131 197.097C207.092 200.096 210.725 201.595 216.03 201.595C220.989 201.595 225.891 200.211 230.735 197.443C235.579 194.56 240.077 190.811 244.229 186.198C248.381 181.585 251.899 176.51 254.782 170.974L256.858 172.531C253.744 179.451 249.765 185.448 244.921 190.523C240.192 195.598 235.002 199.519 229.351 202.287C223.815 205.17 218.164 206.612 212.397 206.612ZM203.92 177.548C207.034 176.51 210.552 175.011 214.473 173.05C218.394 170.974 222.143 168.552 225.718 165.784C229.409 163.016 232.407 159.96 234.714 156.615C237.136 153.27 238.347 149.753 238.347 146.062C238.347 144.793 238.116 143.813 237.655 143.121C237.194 142.429 236.213 142.083 234.714 142.083C231.946 142.083 229.005 143.179 225.891 145.37C222.777 147.446 219.778 150.214 216.895 153.674C214.012 157.134 211.417 160.94 209.11 165.092C206.803 169.244 205.073 173.396 203.92 177.548Z" fill="black"/>
<path d="M267.412 211.629C261.415 211.629 256.917 209.668 253.918 205.747C251.035 201.826 249.593 196.52 249.593 189.831C249.593 184.064 250.574 177.26 252.534 169.417C254.495 161.574 257.09 153.386 260.319 144.851C263.549 136.201 267.124 127.782 271.045 119.593C275.082 111.404 279.119 104.023 283.155 97.449C287.192 90.7597 290.998 85.4543 294.573 81.533C298.149 77.4963 301.09 75.478 303.396 75.478C305.357 75.478 306.741 76.689 307.548 79.111C308.471 81.533 308.932 83.955 308.932 86.377C308.932 89.6063 308.24 93.5277 306.856 98.141C305.472 102.754 303.512 107.714 300.974 113.019C298.437 118.209 295.496 123.341 292.151 128.416C288.807 133.491 285.174 138.162 281.252 142.429C277.446 146.581 273.525 149.868 269.488 152.29C268.796 153.559 267.758 156.211 266.374 160.248C265.106 164.169 263.895 168.725 262.741 173.915C261.703 178.99 261.184 183.949 261.184 188.793C261.184 193.522 261.876 197.385 263.26 200.384C264.76 203.498 267.239 205.055 270.699 205.055C274.044 205.055 277.504 203.671 281.079 200.903C284.655 198.25 287.538 194.79 289.729 190.523C285.462 188.332 282.29 185.16 280.214 181.008C278.138 176.741 277.1 172.473 277.1 168.206C277.1 162.67 278.542 158.23 281.425 154.885C284.309 151.54 287.711 149.868 291.632 149.868C294.977 149.868 297.63 151.252 299.59 154.02C301.551 156.673 302.531 160.594 302.531 165.784C302.531 169.59 302.012 173.511 300.974 177.548C299.936 181.585 298.437 185.506 296.476 189.312C297.86 189.658 299.36 189.831 300.974 189.831C305.126 189.831 308.586 188.851 311.354 186.89C314.122 184.814 316.429 182.334 318.274 179.451C320.235 176.452 321.85 173.627 323.118 170.974L325.194 173.223C321.965 181.181 318.101 186.486 313.603 189.139C309.221 191.676 304.838 192.945 300.455 192.945C298.495 192.945 296.649 192.772 294.919 192.426C291.805 197.731 287.942 202.229 283.328 205.92C278.83 209.726 273.525 211.629 267.412 211.629ZM271.391 145.543C274.621 143.006 277.735 139.776 280.733 135.855C283.847 131.934 286.731 127.782 289.383 123.399C292.036 118.901 294.4 114.518 296.476 110.251C298.552 105.984 300.167 102.12 301.32 98.66C302.474 95.2 303.05 92.605 303.05 90.875C303.05 89.9523 302.82 89.491 302.358 89.491C301.436 89.491 299.648 91.1633 296.995 94.508C294.458 97.7373 291.575 102.12 288.345 107.656C285.231 113.077 282.117 119.132 279.003 125.821C275.889 132.395 273.352 138.969 271.391 145.543ZM291.459 187.063C292.728 184.41 293.708 181.642 294.4 178.759C295.092 175.76 295.438 172.704 295.438 169.59C295.438 165.553 294.862 162.382 293.708 160.075C292.67 157.768 291.344 156.615 289.729 156.615C287.999 156.615 286.442 157.826 285.058 160.248C283.79 162.555 283.155 165.496 283.155 169.071C283.155 172.185 283.79 175.472 285.058 178.932C286.327 182.392 288.461 185.102 291.459 187.063Z" fill="black"/>
<path d="M392.547 214.051C388.971 214.051 385.569 213.532 382.34 212.494C379.11 211.571 376.342 209.495 374.036 206.266C375.42 199.692 377.15 192.484 379.226 184.641C381.417 176.683 383.724 168.667 386.146 160.594C388.568 152.521 390.932 144.851 393.239 137.585C395.661 130.204 397.794 123.745 399.64 118.209C401.485 112.673 402.927 108.579 403.965 105.926C404.426 104.657 405.291 102.754 406.56 100.217C407.828 97.5643 409.385 95.1423 411.231 92.951C413.076 90.7597 415.152 89.664 417.459 89.664C419.073 89.664 420.688 90.2407 422.303 91.394C418.727 99.698 415.094 108.867 411.404 118.901C407.828 128.935 404.368 139.315 401.024 150.041C397.679 160.652 394.623 171.032 391.855 181.181C389.087 191.33 386.78 200.557 384.935 208.861C387.703 209.322 390.182 209.553 392.374 209.553C399.755 209.553 406.848 207.823 413.653 204.363C420.573 201.018 426.974 196.405 432.856 190.523C438.853 184.526 444.101 177.721 448.599 170.109C453.097 162.382 456.557 154.251 458.979 145.716C461.516 137.066 462.785 128.474 462.785 119.939C462.785 105.868 459.498 95.546 452.924 88.972C446.35 82.398 437.815 79.111 427.32 79.111C419.823 79.111 413.076 80.6103 407.079 83.609C401.081 86.6077 396.353 90.6443 392.893 95.719C389.433 100.794 387.703 106.503 387.703 112.846C387.703 115.383 387.991 117.517 388.568 119.247C384.762 119.247 382.051 118.324 380.437 116.479C378.937 114.518 378.188 112.212 378.188 109.559C378.188 105.522 379.572 101.486 382.34 97.449C385.223 93.297 389.144 89.491 394.104 86.031C399.178 82.571 405.003 79.803 411.577 77.727C418.151 75.5357 425.128 74.44 432.51 74.44C442.89 74.44 451.194 76.5737 457.422 80.841C463.765 84.993 468.378 90.6443 471.262 97.795C474.145 104.946 475.587 112.961 475.587 121.842C475.587 131.876 474.03 141.506 470.916 150.733C467.802 159.844 463.477 168.264 457.941 175.991C452.52 183.603 446.292 190.292 439.257 196.059C432.221 201.71 424.667 206.093 416.594 209.207C408.636 212.436 400.62 214.051 392.547 214.051Z" fill="black"/>
<path d="M494.873 206.612C487.838 206.612 482.533 204.651 478.957 200.73C475.497 196.924 473.767 192.195 473.767 186.544C473.767 181.354 475.036 175.876 477.573 170.109C480.226 164.342 483.686 158.922 487.953 153.847C492.336 148.772 497.122 144.678 502.312 141.564C507.502 138.335 512.635 136.72 517.709 136.72C520.362 136.72 522.784 137.412 524.975 138.796C527.282 140.18 528.435 143.006 528.435 147.273C528.435 151.656 527.109 155.808 524.456 159.729C521.919 163.535 518.517 166.937 514.249 169.936C510.097 172.935 505.484 175.414 500.409 177.375C495.45 179.22 490.491 180.374 485.531 180.835C485.301 181.988 485.128 183.084 485.012 184.122C484.897 185.16 484.839 186.14 484.839 187.063C484.839 190.638 485.762 193.983 487.607 197.097C489.568 200.096 493.201 201.595 498.506 201.595C503.466 201.595 508.367 200.211 513.211 197.443C518.055 194.56 522.553 190.811 526.705 186.198C530.857 181.585 534.375 176.51 537.258 170.974L539.334 172.531C536.22 179.451 532.241 185.448 527.397 190.523C522.669 195.598 517.479 199.519 511.827 202.287C506.291 205.17 500.64 206.612 494.873 206.612ZM486.396 177.548C489.51 176.51 493.028 175.011 496.949 173.05C500.871 170.974 504.619 168.552 508.194 165.784C511.885 163.016 514.884 159.96 517.19 156.615C519.612 153.27 520.823 149.753 520.823 146.062C520.823 144.793 520.593 143.813 520.131 143.121C519.67 142.429 518.69 142.083 517.19 142.083C514.422 142.083 511.481 143.179 508.367 145.37C505.253 147.446 502.255 150.214 499.371 153.674C496.488 157.134 493.893 160.94 491.586 165.092C489.28 169.244 487.55 173.396 486.396 177.548Z" fill="black"/>
<path d="M545.045 205.747C541.469 205.747 538.99 203.959 537.606 200.384C536.222 196.924 535.53 192.368 535.53 186.717C535.53 186.486 535.587 184.699 535.703 181.354C535.818 177.894 536.106 172.127 536.568 164.054C536.798 160.94 537.144 158.806 537.606 157.653C538.067 156.5 539.566 155.923 542.104 155.923C544.064 155.923 545.275 156.327 545.737 157.134C546.313 157.826 546.602 159.268 546.602 161.459C546.602 165.265 546.313 169.763 545.737 174.953C545.275 180.028 545.045 184.814 545.045 189.312C545.045 192.657 545.333 195.136 545.91 196.751C546.486 198.25 547.524 199 549.024 199C551.1 199 553.406 197.847 555.944 195.54C558.481 193.118 561.076 190.004 563.729 186.198C566.381 182.277 568.861 178.125 571.168 173.742C573.59 169.359 575.724 165.15 577.569 161.113C577.8 153.27 578.607 148.08 579.991 145.543C581.49 142.89 583.335 141.564 585.527 141.564C587.718 141.564 589.275 142.371 590.198 143.986C591.236 145.485 591.755 146.869 591.755 148.138C591.755 149.637 591.236 151.194 590.198 152.809C589.275 154.424 588.295 156.615 587.257 159.383C586.219 162.151 585.7 166.13 585.7 171.32C585.7 173.165 585.873 175.126 586.219 177.202C586.565 179.278 587.315 181.008 588.468 182.392C589.621 183.776 591.409 184.468 593.831 184.468C596.253 184.468 598.559 183.545 600.751 181.7C603.057 179.739 605.306 176.395 607.498 171.666L609.747 173.396C607.209 179.163 604.384 183.026 601.27 184.987C598.271 186.948 595.388 187.928 592.62 187.928C588.814 187.928 585.642 186.544 583.105 183.776C580.567 181.008 578.895 176.798 578.088 171.147C575.32 176.798 572.033 182.277 568.227 187.582C564.536 192.772 560.672 197.097 556.636 200.557C552.599 204.017 548.735 205.747 545.045 205.747Z" fill="black"/>
<path d="M622.934 206.612C615.899 206.612 610.593 204.651 607.018 200.73C603.558 196.924 601.828 192.195 601.828 186.544C601.828 181.354 603.097 175.876 605.634 170.109C608.287 164.342 611.747 158.922 616.014 153.847C620.397 148.772 625.183 144.678 630.373 141.564C635.563 138.335 640.695 136.72 645.77 136.72C648.423 136.72 650.845 137.412 653.036 138.796C655.343 140.18 656.496 143.006 656.496 147.273C656.496 151.656 655.17 155.808 652.517 159.729C649.98 163.535 646.577 166.937 642.31 169.936C638.158 172.935 633.545 175.414 628.47 177.375C623.511 179.22 618.551 180.374 613.592 180.835C613.361 181.988 613.188 183.084 613.073 184.122C612.958 185.16 612.9 186.14 612.9 187.063C612.9 190.638 613.823 193.983 615.668 197.097C617.629 200.096 621.262 201.595 626.567 201.595C631.526 201.595 636.428 200.211 641.272 197.443C646.116 194.56 650.614 190.811 654.766 186.198C658.918 181.585 662.436 176.51 665.319 170.974L667.395 172.531C664.281 179.451 660.302 185.448 655.458 190.523C650.729 195.598 645.539 199.519 639.888 202.287C634.352 205.17 628.701 206.612 622.934 206.612ZM614.457 177.548C617.571 176.51 621.089 175.011 625.01 173.05C628.931 170.974 632.68 168.552 636.255 165.784C639.946 163.016 642.944 159.96 645.251 156.615C647.673 153.27 648.884 149.753 648.884 146.062C648.884 144.793 648.653 143.813 648.192 143.121C647.731 142.429 646.75 142.083 645.251 142.083C642.483 142.083 639.542 143.179 636.428 145.37C633.314 147.446 630.315 150.214 627.432 153.674C624.549 157.134 621.954 160.94 619.647 165.092C617.34 169.244 615.61 173.396 614.457 177.548Z" fill="black"/>
<path d="M676.219 204.19C671.26 204.19 667.685 202.46 665.493 199C663.417 195.655 662.379 191.446 662.379 186.371C662.379 180.835 663.417 174.261 665.493 166.649C667.569 159.037 670.28 151.021 673.624 142.602C677.084 134.183 680.833 125.994 684.869 118.036C688.906 109.963 692.943 102.639 696.979 96.065C701.016 89.491 704.707 84.2433 708.051 80.322C711.511 76.4007 714.222 74.44 716.182 74.44C717.451 74.44 718.489 75.1897 719.296 76.689C720.104 78.073 720.738 79.803 721.199 81.879C721.661 83.8397 721.891 85.6273 721.891 87.242C721.891 90.356 721.084 94.4503 719.469 99.525C717.97 104.484 715.779 110.078 712.895 116.306C710.127 122.419 706.783 128.647 702.861 134.99C699.055 141.218 694.846 147.215 690.232 152.982C685.734 158.749 680.948 163.708 675.873 167.86C675.181 170.974 674.605 174.03 674.143 177.029C673.797 179.912 673.624 182.68 673.624 185.333C673.624 194.214 676.162 198.654 681.236 198.654C684.35 198.654 687.407 197.27 690.405 194.502C693.519 191.734 696.403 188.274 699.055 184.122C701.823 179.855 704.188 175.472 706.148 170.974L708.743 172.358C704.13 182.161 699.113 189.946 693.692 195.713C688.272 201.364 682.447 204.19 676.219 204.19ZM677.43 161.978C681.467 157.941 685.388 153.328 689.194 148.138C693 142.833 696.518 137.354 699.747 131.703C703.092 126.052 706.033 120.573 708.57 115.268C711.108 109.963 713.068 105.234 714.452 101.082C715.836 96.8147 716.528 93.5277 716.528 91.221C716.528 90.0677 716.355 89.318 716.009 88.972C715.779 88.626 715.548 88.453 715.317 88.453C714.395 88.453 712.78 89.9523 710.473 92.951C708.282 95.8343 705.687 99.7557 702.688 104.715C699.69 109.674 696.633 115.326 693.519 121.669C690.405 128.012 687.407 134.644 684.523 141.564C681.755 148.484 679.391 155.289 677.43 161.978Z" fill="black"/>
<path d="M714.682 204.536C709.723 204.536 706.205 202.979 704.129 199.865C702.053 196.866 701.015 193.176 701.015 188.793C701.015 185.218 701.592 181.527 702.745 177.721C703.898 173.915 705.398 170.34 707.243 166.995C709.204 163.65 711.337 160.94 713.644 158.864C716.066 156.788 718.488 155.75 720.91 155.75C721.948 155.75 723.159 156.038 724.543 156.615C723.505 157.538 722.236 159.268 720.737 161.805C719.353 164.227 718.027 167.053 716.758 170.282C715.489 173.396 714.394 176.51 713.471 179.624C712.664 182.738 712.26 185.391 712.26 187.582C712.26 191.042 712.837 193.579 713.99 195.194C715.143 196.693 716.643 197.443 718.488 197.443C720.91 197.443 723.793 196.174 727.138 193.637C730.483 190.984 733.77 187.64 736.999 183.603C733.77 180.95 731.232 177.49 729.387 173.223C727.657 168.84 726.792 164.4 726.792 159.902C726.792 156.096 727.426 152.521 728.695 149.176C730.079 145.831 732.04 143.179 734.577 141.218C737.114 139.142 740.171 138.104 743.746 138.104C748.475 138.104 751.646 139.373 753.261 141.91C754.876 144.447 755.683 147.619 755.683 151.425C755.683 155.923 754.587 160.94 752.396 166.476C750.205 171.897 747.437 177.144 744.092 182.219C746.168 183.372 748.359 183.949 750.666 183.949C753.319 183.949 756.548 183.084 760.354 181.354C764.16 179.509 767.101 176.222 769.177 171.493L771.253 173.223C768.946 178.644 765.659 182.507 761.392 184.814C757.24 187.005 753.261 188.101 749.455 188.101C746.341 188.101 743.573 187.524 741.151 186.371C737.23 191.561 732.905 195.886 728.176 199.346C723.563 202.806 719.065 204.536 714.682 204.536ZM740.113 179.105C742.996 174.838 745.361 170.397 747.206 165.784C749.167 161.055 750.147 156.615 750.147 152.463C750.147 149.118 749.628 146.696 748.59 145.197C747.667 143.582 746.456 142.775 744.957 142.775C742.65 142.775 740.286 144.447 737.864 147.792C735.442 151.137 734.231 155.346 734.231 160.421C734.231 163.766 734.692 167.168 735.615 170.628C736.653 173.973 738.152 176.798 740.113 179.105Z" fill="black"/>
<path d="M755.032 247.44C754.109 247.44 753.244 246.921 752.437 245.883C751.514 244.96 750.822 243.922 750.361 242.769C749.899 241.731 749.669 241.097 749.669 240.866C751.283 235.215 752.898 230.14 754.513 225.642C756.012 221.259 757.569 216.704 759.184 211.975C760.683 207.362 762.182 201.941 763.682 195.713C765.181 189.37 766.738 181.527 768.353 172.185C769.967 162.843 771.582 151.252 773.197 137.412C773.312 136.374 773.543 135.624 773.889 135.163C774.235 134.702 775.1 134.471 776.484 134.471C779.482 134.471 781.616 135.336 782.885 137.066C784.153 138.681 784.788 140.468 784.788 142.429C784.788 144.044 784.442 146.927 783.75 151.079C783.058 155.231 782.077 160.133 780.809 165.784C782.769 161.978 785.191 158.114 788.075 154.193C791.073 150.272 794.476 146.985 798.282 144.332C802.088 141.679 806.24 140.353 810.738 140.353C815.812 140.353 819.964 142.198 823.194 145.889C826.538 149.464 828.211 154.193 828.211 160.075C828.211 164.573 827.173 169.359 825.097 174.434C823.136 179.393 820.31 184.122 816.62 188.62C813.044 193.003 808.777 196.578 803.818 199.346C798.858 202.114 793.38 203.498 787.383 203.498C784.384 203.498 781.962 203.152 780.117 202.46C778.271 201.768 777.349 201.076 777.349 200.384C777.349 199.923 777.752 199.634 778.56 199.519C779.482 199.519 780.52 199.519 781.674 199.519C786.287 199.519 790.67 198.423 794.822 196.232C799.089 193.925 802.895 190.927 806.24 187.236C809.584 183.545 812.179 179.451 814.025 174.953C815.985 170.455 816.966 166.015 816.966 161.632C816.966 157.941 816.158 154.827 814.544 152.29C813.044 149.637 810.565 148.311 807.105 148.311C804.106 148.311 801.107 149.291 798.109 151.252C795.225 153.097 792.457 155.519 789.805 158.518C787.267 161.401 784.961 164.458 782.885 167.687C780.924 170.801 779.425 173.627 778.387 176.164C776.311 184.814 774.235 193.118 772.159 201.076C770.083 209.149 768.064 216.415 766.104 222.874C764.258 229.448 762.586 234.811 761.087 238.963C759.472 243.115 758.146 245.652 757.108 246.575C756.531 247.152 755.839 247.44 755.032 247.44Z" fill="black"/>
<path d="M852.193 206.612C845.157 206.612 839.852 204.651 836.277 200.73C832.817 196.924 831.087 192.195 831.087 186.544C831.087 181.354 832.355 175.876 834.893 170.109C837.545 164.342 841.005 158.922 845.273 153.847C849.655 148.772 854.442 144.678 859.632 141.564C864.822 138.335 869.954 136.72 875.029 136.72C877.681 136.72 880.103 137.412 882.295 138.796C884.601 140.18 885.755 143.006 885.755 147.273C885.755 151.656 884.428 155.808 881.776 159.729C879.238 163.535 875.836 166.937 871.569 169.936C867.417 172.935 862.803 175.414 857.729 177.375C852.769 179.22 847.81 180.374 842.851 180.835C842.62 181.988 842.447 183.084 842.332 184.122C842.216 185.16 842.159 186.14 842.159 187.063C842.159 190.638 843.081 193.983 844.927 197.097C846.887 200.096 850.52 201.595 855.826 201.595C860.785 201.595 865.687 200.211 870.531 197.443C875.375 194.56 879.873 190.811 884.025 186.198C888.177 181.585 891.694 176.51 894.578 170.974L896.654 172.531C893.54 179.451 889.561 185.448 884.717 190.523C879.988 195.598 874.798 199.519 869.147 202.287C863.611 205.17 857.959 206.612 852.193 206.612ZM843.716 177.548C846.83 176.51 850.347 175.011 854.269 173.05C858.19 170.974 861.938 168.552 865.514 165.784C869.204 163.016 872.203 159.96 874.51 156.615C876.932 153.27 878.143 149.753 878.143 146.062C878.143 144.793 877.912 143.813 877.451 143.121C876.989 142.429 876.009 142.083 874.51 142.083C871.742 142.083 868.801 143.179 865.687 145.37C862.573 147.446 859.574 150.214 856.691 153.674C853.807 157.134 851.212 160.94 848.906 165.092C846.599 169.244 844.869 173.396 843.716 177.548Z" fill="black"/>
<path d="M921.048 203.498C917.127 203.498 914.013 202.46 911.706 200.384C909.515 198.308 908.419 195.598 908.419 192.253C908.419 188.793 909.226 185.16 910.841 181.354C912.456 177.548 914.013 173.8 915.512 170.109C917.127 166.303 917.934 162.901 917.934 159.902C917.934 156.211 916.838 153.501 914.647 151.771C912.571 149.926 910.437 148.253 908.246 146.754C905.593 153.559 902.825 160.017 899.942 166.13C897.059 172.243 894.695 176.856 892.849 179.97L891.292 177.029C892.907 174.03 894.983 169.648 897.52 163.881C900.173 158.114 902.768 151.54 905.305 144.159C904.152 143.006 903.575 141.622 903.575 140.007C903.575 136.547 904.556 133.721 906.516 131.53C908.477 129.339 909.918 128.243 910.841 128.243C912.11 128.243 912.802 128.82 912.917 129.973C913.148 131.011 913.263 131.818 913.263 132.395C913.263 132.972 912.917 134.125 912.225 135.855C911.648 137.47 911.36 138.45 911.36 138.796C911.36 140.411 912.225 141.91 913.955 143.294C915.8 144.563 917.876 146.062 920.183 147.792C922.49 149.407 924.508 151.425 926.238 153.847C928.083 156.154 929.006 159.152 929.006 162.843C929.006 166.303 928.256 169.821 926.757 173.396C925.373 176.971 923.931 180.374 922.432 183.603C921.048 186.832 920.356 189.658 920.356 192.08C920.356 194.156 920.875 195.54 921.913 196.232C922.951 196.924 924.162 197.27 925.546 197.27C928.314 197.27 931.14 196.405 934.023 194.675C937.022 192.945 939.905 190.754 942.673 188.101C945.441 185.448 947.921 182.68 950.112 179.797C952.304 176.798 953.918 174.03 954.956 171.493L957.205 173.223C955.014 178.067 952.015 182.853 948.209 187.582C944.403 192.195 940.136 196.001 935.407 199C930.794 201.999 926.007 203.498 921.048 203.498Z" fill="black"/>
</g>
</mask>
<g mask="url(#mask0)">
<g id="handwriting_2" filter="url(#filter0_d)">
<path d="M53.5 118.5C52.5 110.333 54.3 85.7 71.5 76.5C93 65 93.5 125.5 95.5 105C97.5 84.5 84.5 148.5 82 153.5C80.0895 157.321 71.5 194 71.5 200C71.5 206 75 213 84.5 211.5C94 210 128.5 159.5 137.5 135.5C142.618 121.851 106.5 211.5 123 211.5C139.5 211.5 179 163 184 148.5C189 134 203 86 190 84C179.6 82.4 196.333 146.833 205 178C218.5 173.333 244.6 160.9 241 148.5C236.5 133 217.488 142 209.5 153.5C201.512 165 192 190.5 198.5 193C205 195.5 213.5 215.5 231.5 200C245.9 187.6 253.167 180.167 255 178L269 148.5L284 135.5L300 111.5C301.833 108.667 305.4 99.7 305 86.5C304.5 70 281 101.5 275 118.5C269 135.5 247.5 179.5 255 193C261 203.8 266.833 206.5 269 206.5C274 207 285.6 205 292 193C300 178 300 153.5 292 153.5C284 153.5 279 170 281.5 181.5C284 193 304 192.5 309 190.5C313 188.9 319.667 181.5 322.5 178L385.5 128V111.5C384.5 102.833 387.8 84.5 409 80.5C435.5 75.5 454 75.5 464 97C474 118.5 467.5 174.5 433 193C424.5 200 391 218 382.5 206.5C375.7 197.3 403.833 127.833 414.5 93.5L486 178C496.167 175.833 518.3 167.9 525.5 153.5C534.5 135.5 518.5 133.5 508 141C497.5 148.5 479 170 478 181.5C477 193 487 206.5 497.5 206.5C508 206.5 543 172.5 542 168C541.2 164.4 541.667 156.833 542 153.5C540.5 166.833 538.4 194.8 542 200C546.5 206.5 569.5 194.5 574 178C577.6 164.8 586.833 145.333 589 141C586.167 145.833 578.2 166.7 585 181.5C593.5 200 652 158.5 652.5 153.5C653 148.5 651 133.5 638.5 141C626 148.5 600.5 181 608 190.5C615.5 200 619.5 209.5 638.5 200C657.5 190.5 706 135 709 118.5C712 102 725 90 717 80.5C709 71 675 144.278 672 159C669 173.722 661.5 193.5 672 200C682.5 206.5 717 173.5 717 163.5C717 153.5 701 189 705 194.5C709 200 724.5 213 736 190.5C745.2 172.5 751.833 158.333 754 153.5C752.167 146.833 746 135 736 141C723.5 148.5 731 170 736 181.5C741 193 769 178 771 178C772.6 178 778.5 145.833 780 133.5C774.833 166 760.4 239 754 241C747.6 243 767 193.167 777.5 168C785.333 156.5 806.2 134.5 815 146.5C826 161.5 827.5 145 812 193C805.667 195.333 790.8 200 782 200C773.2 200 818.667 185.333 842.5 178C856 174 882.8 163.5 882 153.5C881 141 881.5 133.5 862 141C842.5 148.5 829.5 195 838.5 197.5C847.5 200 863.5 213 882 190.5C896.8 172.5 907.167 146.333 910.5 135.5L933.5 111.5L875 102L922.5 159C922.333 168.167 919.5 182.9 915.5 190.5C911.5 198.1 922.5 200 928.5 200C936.5 196 952.9 186 954.5 178C956.1 170 960.167 155 962 148.5" stroke="black" stroke-width="15"/>
</g>
</g>
</g>
</g>
<defs>
<filter id="filter0_d" x="41.7794" y="67.531" width="931.439" height="189.028" filterUnits="userSpaceOnUse" color-interpolation-filters="sRGB">
<feFlood flood-opacity="0" result="BackgroundImageFix"/>
<feColorMatrix in="SourceAlpha" type="matrix" values="0 0 0 0 0 0 0 0 0 0 0 0 0 0 0 0 0 0 127 0"/>
<feOffset dy="4"/>
<feGaussianBlur stdDeviation="2"/>
<feColorMatrix type="matrix" values="0 0 0 0 0 0 0 0 0 0 0 0 0 0 0 0 0 0 0.25 0"/>
<feBlend mode="normal" in2="BackgroundImageFix" result="effect1_dropShadow"/>
<feBlend mode="normal" in="SourceGraphic" in2="effect1_dropShadow" result="shape"/>
</filter>
</defs>
</svg>
