<svg width="700" height="312" viewBox="0 0 700 312" fill="none" xmlns="http://www.w3.org/2000/svg">
<g id="projects_title">
<path id="text" d="M146.981 52H151.527L155.786 27.2368L156.049 25.7534L156.289 27.2129L160.523 52H165.045L169.28 17.1641H165.093L162.581 41.1377L162.438 42.5732L162.174 41.1616L157.939 17.1641H154.087L149.876 41.1377L149.613 42.5732L149.47 41.1855L146.958 17.1641H142.747L146.981 52ZM196.436 52V17.1641H192.249V32.1416H177.965V17.1641H173.802V52H177.965V35.8979H192.249V52H196.436ZM220.649 42.98L223.4 52H227.803L216.749 17.1641H213.041L201.795 52H206.222L209.021 42.98H220.649ZM210.217 39.1279L214.883 24.0068L219.477 39.1279H210.217ZM256.944 20.9443V17.1641H231.104V20.9443H241.871V52H246.178V20.9443H256.944ZM292.307 17.1641V21.0161H300.465V48.1719H292.307V52H313.361V48.1719H305.011V21.0161H313.361V17.1641H292.307ZM335.182 18.2407V14.7236H330.851V18.3125C330.851 19.6842 330.66 20.9603 330.277 22.1406C329.91 23.321 329.352 24.4774 328.602 25.6099L331.019 27.3325C331.688 26.7583 332.279 26.1043 332.789 25.3706C333.299 24.6369 333.738 23.8633 334.105 23.0498C334.456 22.2523 334.719 21.4388 334.895 20.6094C335.086 19.7799 335.182 18.9904 335.182 18.2407ZM359.706 52H363.558L374.54 17.1641H369.826L362.122 43.1235L361.596 44.8701L361.093 43.1714L353.437 17.1641H348.7L359.706 52ZM399.757 35.8979V32.1416H385.21V20.9443H401.958V17.1641H380.784V52H402.174V48.2437H385.21V35.8979H399.757ZM438.996 52H447.059C448.733 51.984 450.289 51.7847 451.724 51.4019C453.176 51.019 454.476 50.4688 455.624 49.751C456.709 49.0651 457.69 48.2357 458.567 47.2627C459.444 46.2897 460.17 45.2051 460.744 44.0088C461.302 42.8604 461.725 41.6003 462.012 40.2285C462.315 38.8568 462.467 37.4053 462.467 35.874V33.314C462.451 31.7189 462.283 30.2196 461.964 28.8159C461.661 27.4123 461.215 26.1203 460.625 24.9399C459.971 23.5522 459.093 22.332 457.993 21.2793C456.908 20.2106 455.656 19.3493 454.236 18.6953C453.215 18.2168 452.099 17.8499 450.887 17.5947C449.69 17.3236 448.414 17.18 447.059 17.1641H438.996V52ZM443.494 20.8008H447.059C448.159 20.8167 449.172 20.9443 450.097 21.1836C451.022 21.4069 451.86 21.7259 452.609 22.1406C453.662 22.6989 454.547 23.4326 455.265 24.3418C455.999 25.235 456.581 26.2399 457.012 27.3564C457.347 28.2178 457.594 29.1509 457.753 30.1558C457.929 31.1447 458.025 32.1815 458.041 33.2661V35.874C458.025 36.9427 457.937 37.9715 457.777 38.9604C457.618 39.9334 457.379 40.8426 457.06 41.688C456.693 42.7248 456.19 43.6659 455.552 44.5112C454.93 45.3407 454.188 46.0425 453.327 46.6167C452.514 47.175 451.581 47.6056 450.528 47.9087C449.491 48.2118 448.335 48.3713 447.059 48.3872H443.494V20.8008ZM491.537 36.5918V32.6201C491.521 31.376 491.409 30.1159 491.202 28.8398C491.01 27.5638 490.707 26.3356 490.292 25.1553C489.862 23.9749 489.319 22.8743 488.666 21.8535C488.028 20.8167 487.262 19.9155 486.369 19.1499C485.475 18.3843 484.447 17.7861 483.282 17.3555C482.118 16.9089 480.818 16.6855 479.382 16.6855C477.947 16.6855 476.647 16.9089 475.482 17.3555C474.334 17.7861 473.313 18.3843 472.42 19.1499C471.527 19.9315 470.753 20.8407 470.099 21.8774C469.461 22.8983 468.935 23.9989 468.52 25.1792C468.089 26.3595 467.77 27.5877 467.563 28.8638C467.372 30.1239 467.268 31.376 467.252 32.6201V36.5918C467.268 37.8359 467.38 39.0881 467.587 40.3481C467.794 41.6082 468.113 42.8285 468.544 44.0088C468.959 45.1891 469.493 46.2977 470.147 47.3345C470.801 48.3553 471.575 49.2485 472.468 50.0142C473.361 50.7798 474.382 51.3859 475.53 51.8325C476.695 52.2632 477.995 52.4785 479.43 52.4785C480.866 52.4785 482.158 52.2632 483.306 51.8325C484.471 51.3859 485.499 50.7798 486.393 50.0142C487.286 49.2485 488.051 48.3553 488.689 47.3345C489.343 46.3136 489.878 45.2131 490.292 44.0327C490.707 42.8524 491.01 41.6322 491.202 40.3721C491.409 39.096 491.521 37.8359 491.537 36.5918ZM487.158 32.5723V36.5918C487.142 37.4212 487.086 38.2905 486.991 39.1997C486.911 40.1089 486.759 41.0021 486.536 41.8794C486.297 42.7726 485.986 43.626 485.603 44.4395C485.236 45.237 484.774 45.9388 484.215 46.5449C483.641 47.167 482.955 47.6615 482.158 48.0283C481.376 48.3952 480.467 48.5786 479.43 48.5786C478.393 48.5786 477.484 48.3952 476.703 48.0283C475.921 47.6615 475.243 47.167 474.669 46.5449C474.095 45.9388 473.616 45.229 473.233 44.4155C472.851 43.6021 472.54 42.7487 472.3 41.8555C472.061 40.9782 471.886 40.085 471.774 39.1758C471.678 38.2666 471.622 37.4053 471.606 36.5918V32.5723C471.622 31.7588 471.678 30.9054 471.774 30.0122C471.886 29.103 472.061 28.2018 472.3 27.3086C472.524 26.4313 472.827 25.5939 473.209 24.7964C473.592 23.9829 474.071 23.2651 474.645 22.6431C475.219 22.0369 475.897 21.5505 476.679 21.1836C477.46 20.8167 478.361 20.6333 479.382 20.6333C480.419 20.6333 481.328 20.8167 482.11 21.1836C482.891 21.5345 483.569 22.013 484.144 22.6191C484.718 23.2412 485.196 23.959 485.579 24.7725C485.962 25.57 486.273 26.4074 486.512 27.2847C486.736 28.1779 486.895 29.0791 486.991 29.9883C487.086 30.8815 487.142 31.7428 487.158 32.5723ZM520.128 52V17.1641H515.654L515.582 43.1475L502.064 17.1641H497.566V52H502.04L502.112 25.9688L515.63 52H520.128ZM546.901 35.8979V32.1416H532.354V20.9443H549.102V17.1641H527.928V52H549.317V48.2437H532.354V35.8979H546.901Z" fill="black"/>
<path id="title" d="M85.574 233.574C82.2073 233.574 79.0427 232.631 76.08 230.746C73.1173 228.861 71.636 226.437 71.636 223.474C71.636 221.993 71.9727 220.175 72.646 218.02C73.3193 216 73.9253 214.115 74.464 212.364C78.7733 199.167 82.8133 186.845 86.584 175.398C90.3547 163.951 94.1253 152.841 97.896 142.068C101.667 131.295 105.639 120.521 109.814 109.748C114.123 98.9747 118.904 87.73 124.156 76.014C119.039 76.9567 114.46 78.3707 110.42 80.256C106.515 82.0067 103.35 83.6227 100.926 85.104C98.502 86.4507 96.886 87.124 96.078 87.124C95.27 87.124 93.9907 86.4507 92.24 85.104C90.624 83.7573 89.816 82.6127 89.816 81.67C93.3173 80.1887 97.4247 78.5727 102.138 76.822C106.986 75.0713 112.171 73.59 117.692 72.378C123.213 71.166 128.802 70.56 134.458 70.56C140.383 70.56 146.376 71.368 152.436 72.984C158.631 74.6 164.287 77.0913 169.404 80.458C174.521 83.69 178.629 87.73 181.726 92.578C184.823 97.426 186.372 103.082 186.372 109.546C186.372 116.549 184.823 122.609 181.726 127.726C178.629 132.709 174.521 136.951 169.404 140.452C164.287 143.819 158.765 146.579 152.84 148.734C146.915 150.754 140.989 152.37 135.064 153.582C129.273 154.659 124.089 155.4 119.51 155.804C114.931 156.073 111.565 156.208 109.41 156.208H107.39C103.35 170.079 99.4447 183.747 95.674 197.214C92.038 210.681 88.6713 222.801 85.574 233.574ZM108.198 152.976C115.605 152.572 123.079 151.36 130.62 149.34C138.296 147.32 145.299 144.425 151.628 140.654C157.957 136.749 163.075 131.968 166.98 126.312C170.885 120.521 172.838 113.788 172.838 106.112C172.838 98.84 171.087 92.9147 167.586 88.336C164.219 83.7573 159.708 80.3907 154.052 78.236C148.531 75.9467 142.605 74.802 136.276 74.802C131.293 84.6327 126.445 96.416 121.732 110.152C117.019 123.888 112.507 138.163 108.198 152.976ZM205.524 221.252C200.945 221.252 197.309 220.04 194.616 217.616C192.057 215.192 190.778 212.027 190.778 208.122C190.778 204.082 191.721 199.84 193.606 195.396C195.491 190.952 197.309 186.575 199.06 182.266C200.945 177.822 201.888 173.849 201.888 170.348C201.888 166.039 200.609 162.874 198.05 160.854C195.626 158.699 193.135 156.747 190.576 154.996C187.479 162.941 184.247 170.483 180.88 177.62C177.513 184.757 174.753 190.144 172.598 193.78L170.78 190.346C172.665 186.845 175.089 181.727 178.052 174.994C181.149 168.261 184.179 160.585 187.142 151.966C185.795 150.619 185.122 149.003 185.122 147.118C185.122 143.078 186.267 139.779 188.556 137.22C190.845 134.661 192.529 133.382 193.606 133.382C195.087 133.382 195.895 134.055 196.03 135.402C196.299 136.614 196.434 137.557 196.434 138.23C196.434 138.903 196.03 140.25 195.222 142.27C194.549 144.155 194.212 145.3 194.212 145.704C194.212 147.589 195.222 149.34 197.242 150.956C199.397 152.437 201.821 154.188 204.514 156.208C207.207 158.093 209.564 160.45 211.584 163.278C213.739 165.971 214.816 169.473 214.816 173.782C214.816 177.822 213.941 181.929 212.19 186.104C210.574 190.279 208.891 194.251 207.14 198.022C205.524 201.793 204.716 205.092 204.716 207.92C204.716 210.344 205.322 211.96 206.534 212.768C207.746 213.576 209.16 213.98 210.776 213.98C214.008 213.98 217.307 212.97 220.674 210.95C224.175 208.93 227.542 206.371 230.774 203.274C234.006 200.177 236.901 196.945 239.46 193.578C242.019 190.077 243.904 186.845 245.116 183.882L247.742 185.902C245.183 191.558 241.682 197.147 237.238 202.668C232.794 208.055 227.811 212.499 222.29 216C216.903 219.501 211.315 221.252 205.524 221.252ZM254.743 222.464C248.952 222.464 244.845 220.646 242.421 217.01C239.997 213.509 238.785 209.199 238.785 204.082C238.785 199.907 239.458 195.598 240.805 191.154C242.151 186.71 243.902 182.535 246.057 178.63C248.346 174.725 250.837 171.56 253.531 169.136C256.359 166.712 259.187 165.5 262.015 165.5C263.227 165.5 264.641 165.837 266.257 166.51C265.045 167.587 263.563 169.607 261.813 172.57C260.197 175.398 258.648 178.697 257.167 182.468C255.685 186.104 254.406 189.74 253.329 193.376C252.386 197.012 251.915 200.109 251.915 202.668C251.915 206.708 252.588 209.671 253.935 211.556C255.281 213.307 257.032 214.182 259.187 214.182C262.015 214.182 265.381 212.701 269.287 209.738C273.192 206.641 277.03 202.735 280.801 198.022C277.03 194.925 274.067 190.885 271.913 185.902C269.893 180.785 268.883 175.6 268.883 170.348C268.883 165.904 269.623 161.729 271.105 157.824C272.721 153.919 275.01 150.821 277.973 148.532C280.935 146.108 284.504 144.896 288.679 144.896C294.2 144.896 297.903 146.377 299.789 149.34C301.674 152.303 302.617 156.006 302.617 160.45C302.617 165.702 301.337 171.56 298.779 178.024C296.22 184.353 292.988 190.481 289.083 196.406C291.507 197.753 294.065 198.426 296.759 198.426C299.856 198.426 303.627 197.416 308.071 195.396C312.515 193.241 315.949 189.403 318.373 183.882L320.797 185.902C318.103 192.231 314.265 196.743 309.283 199.436C304.435 201.995 299.789 203.274 295.345 203.274C291.709 203.274 288.477 202.601 285.649 201.254C281.07 207.314 276.02 212.364 270.499 216.404C265.112 220.444 259.86 222.464 254.743 222.464ZM284.437 192.77C287.803 187.787 290.564 182.603 292.719 177.216C295.008 171.695 296.153 166.51 296.153 161.662C296.153 157.757 295.547 154.929 294.335 153.178C293.257 151.293 291.843 150.35 290.093 150.35C287.399 150.35 284.639 152.303 281.811 156.208C278.983 160.113 277.569 165.029 277.569 170.954C277.569 174.859 278.107 178.832 279.185 182.872C280.397 186.777 282.147 190.077 284.437 192.77ZM341.852 127.726C339.697 127.726 337.812 127.187 336.196 126.11C334.58 125.033 333.772 123.417 333.772 121.262C333.772 118.165 335.388 115.606 338.62 113.586C341.987 111.566 345.286 110.556 348.518 110.556C350.403 110.556 351.952 111.027 353.164 111.97C354.511 112.913 355.184 114.327 355.184 116.212C355.184 119.175 353.77 121.868 350.942 124.292C348.249 126.581 345.219 127.726 341.852 127.726ZM286.302 272.56C282.935 272.56 280.377 271.55 278.626 269.53C276.741 267.645 275.798 265.221 275.798 262.258C275.798 257.275 278.222 251.821 283.07 245.896C287.783 239.971 293.843 234.921 301.25 230.746C303.135 229.669 305.155 228.659 307.31 227.716C309.33 226.773 311.619 225.629 314.178 224.282C316.871 217.818 319.363 210.479 321.652 202.264C323.941 193.915 325.961 184.69 327.712 174.59C325.692 178.226 323.807 181.391 322.056 184.084C320.44 186.777 319.161 188.932 318.218 190.548L316.4 187.518C318.689 183.343 320.709 178.899 322.46 174.186C324.345 169.338 326.096 164.759 327.712 160.45C329.463 156.141 331.213 152.639 332.964 149.946C334.715 147.253 336.6 145.906 338.62 145.906C340.101 145.906 341.246 146.512 342.054 147.724C342.997 148.801 343.468 150.215 343.468 151.966C343.468 153.447 343.064 156.343 342.256 160.652C341.583 164.827 340.505 170.011 339.024 176.206C337.677 182.266 335.994 188.865 333.974 196.002C331.954 203.139 329.732 210.344 327.308 217.616C331.213 215.327 335.119 212.97 339.024 210.546C342.929 208.122 346.835 204.89 350.74 200.85C354.78 196.81 358.685 191.289 362.456 184.286L365.082 185.7C361.715 193.645 357.675 199.975 352.962 204.688C348.383 209.267 343.67 212.903 338.822 215.596C333.974 218.289 329.463 220.848 325.288 223.272C322.325 231.621 318.824 239.567 314.784 247.108C310.879 254.649 306.569 260.777 301.856 265.49C297.008 270.203 291.823 272.56 286.302 272.56ZM284.484 265.692C287.177 265.692 291.083 262.729 296.2 256.804C301.183 251.013 306.3 242.327 311.552 230.746C301.317 235.729 293.709 240.913 288.726 246.3C283.609 251.687 281.05 256.535 281.05 260.844C281.05 262.595 281.387 263.807 282.06 264.48C282.733 265.288 283.541 265.692 284.484 265.692ZM380.388 224.888C372.174 224.888 365.979 222.599 361.804 218.02C357.764 213.576 355.744 208.055 355.744 201.456C355.744 195.396 357.226 188.999 360.188 182.266C363.286 175.533 367.326 169.203 372.308 163.278C377.426 157.353 383.014 152.572 389.074 148.936C395.134 145.165 401.127 143.28 407.052 143.28C410.15 143.28 412.978 144.088 415.536 145.704C418.23 147.32 419.576 150.619 419.576 155.602C419.576 160.719 418.028 165.567 414.93 170.146C411.968 174.59 407.995 178.563 403.012 182.064C398.164 185.565 392.778 188.461 386.852 190.75C381.062 192.905 375.271 194.251 369.48 194.79C369.211 196.137 369.009 197.416 368.874 198.628C368.74 199.84 368.672 200.985 368.672 202.062C368.672 206.237 369.75 210.142 371.904 213.778C374.194 217.279 378.436 219.03 384.63 219.03C390.421 219.03 396.144 217.414 401.8 214.182C407.456 210.815 412.708 206.439 417.556 201.052C422.404 195.665 426.512 189.74 429.878 183.276L432.302 185.094C428.666 193.174 424.02 200.177 418.364 206.102C412.843 212.027 406.783 216.606 400.184 219.838C393.72 223.205 387.122 224.888 380.388 224.888ZM370.49 190.952C374.126 189.74 378.234 187.989 382.812 185.7C387.391 183.276 391.768 180.448 395.942 177.216C400.252 173.984 403.753 170.415 406.446 166.51C409.274 162.605 410.688 158.497 410.688 154.188C410.688 152.707 410.419 151.562 409.88 150.754C409.342 149.946 408.197 149.542 406.446 149.542C403.214 149.542 399.78 150.821 396.144 153.38C392.508 155.804 389.007 159.036 385.64 163.076C382.274 167.116 379.244 171.56 376.55 176.408C373.857 181.256 371.837 186.104 370.49 190.952ZM447.454 227.312C440.99 227.312 435.603 225.157 431.294 220.848C426.985 216.539 424.83 210.075 424.83 201.456C424.83 194.723 426.109 188.191 428.668 181.862C431.361 175.398 434.863 169.607 439.172 164.49C443.481 159.373 448.262 155.333 453.514 152.37C458.766 149.273 463.951 147.724 469.068 147.724C474.589 147.724 478.36 149.34 480.38 152.572C482.4 155.804 483.41 159.171 483.41 162.672C483.41 166.577 482.467 170.011 480.582 172.974C478.831 175.937 476.407 177.418 473.31 177.418C471.021 177.418 469.068 176.408 467.452 174.388C469.472 173.311 471.223 171.156 472.704 167.924C474.185 164.557 474.926 161.393 474.926 158.43C474.926 156.814 474.589 155.602 473.916 154.794C473.377 153.851 472.233 153.38 470.482 153.38C466.846 153.38 463.075 154.996 459.17 158.228C455.399 161.46 451.831 165.635 448.464 170.752C445.232 175.869 442.539 181.256 440.384 186.912C438.364 192.568 437.354 197.887 437.354 202.87C437.354 207.045 438.364 210.883 440.384 214.384C442.404 217.885 446.309 219.636 452.1 219.636C457.487 219.636 462.873 218.155 468.26 215.192C473.781 212.229 478.899 207.987 483.612 202.466C488.325 196.945 492.096 190.481 494.924 183.074L497.55 185.094C494.453 193.174 490.211 200.446 484.824 206.91C479.437 213.239 473.512 218.222 467.048 221.858C460.584 225.494 454.053 227.312 447.454 227.312ZM508.305 225.292C496.319 225.292 490.327 218.626 490.327 205.294C490.327 199.369 491.404 192.097 493.559 183.478C495.848 174.725 498.676 165.769 502.043 156.612C500.696 156.343 499.417 156.141 498.205 156.006C496.993 155.737 495.848 155.4 494.771 154.996V151.36C495.848 151.495 497.127 151.629 498.609 151.764C500.09 151.899 501.773 152.033 503.659 152.168C506.487 144.896 509.517 137.893 512.749 131.16C515.981 124.292 519.145 118.232 522.243 112.98C525.475 107.593 528.505 103.351 531.333 100.254C534.295 97.022 536.787 95.406 538.807 95.406C539.884 95.406 540.827 95.81 541.635 96.618C542.577 97.2913 543.049 98.3687 543.049 99.85C543.049 102.139 541.635 105.91 538.807 111.162C535.979 116.279 532.477 122.407 528.303 129.544C524.128 136.681 520.088 144.425 516.183 152.774H523.657C528.101 152.774 532.747 152.707 537.595 152.572C542.577 152.437 547.56 152.101 552.543 151.562V155.198C537.864 156.814 526.013 157.622 516.991 157.622H513.961C510.863 164.759 508.237 172.099 506.083 179.64C503.928 187.181 502.851 194.521 502.851 201.658C502.851 207.449 503.726 211.623 505.477 214.182C507.227 216.606 510.123 217.818 514.163 217.818C521.165 217.818 528.033 214.721 534.767 208.526C541.5 202.331 547.425 193.915 552.543 183.276L555.169 185.296C551.937 192.837 547.829 199.638 542.847 205.698C537.999 211.758 532.612 216.539 526.687 220.04C520.761 223.541 514.634 225.292 508.305 225.292ZM569.946 226.302C563.617 226.302 558.567 224.888 554.796 222.06C551.16 219.367 548.602 216 547.12 211.96C545.504 207.92 544.696 203.88 544.696 199.84C544.696 195.8 545.235 192.703 546.312 190.548C547.39 188.393 548.669 186.777 550.15 185.7C551.766 184.623 553.248 183.815 554.594 183.276C556.076 182.737 557.086 182.199 557.624 181.66C561.664 177.216 565.368 172.57 568.734 167.722C572.101 162.874 575.064 157.757 577.622 152.37V149.946C577.622 144.963 578.43 141.462 580.046 139.442C581.797 137.287 583.615 136.21 585.5 136.21C587.655 136.21 588.732 137.085 588.732 138.836C588.732 139.509 588.53 140.587 588.126 142.068C587.722 143.549 587.52 145.435 587.52 147.724C587.52 152.168 588.396 157.016 590.146 162.268C591.897 167.385 593.648 172.839 595.398 178.63C597.149 184.286 598.024 190.211 598.024 196.406C598.024 199.907 597.62 203.207 596.812 206.304C601.526 205.496 605.97 203.409 610.144 200.042C614.319 196.541 618.359 191.019 622.264 183.478L624.082 185.498C621.524 192.905 617.686 198.561 612.568 202.466C607.451 206.237 601.862 208.593 595.802 209.536C593.648 215.327 590.214 219.569 585.5 222.262C580.922 224.955 575.737 226.302 569.946 226.302ZM584.086 206.102C584.356 204.755 584.558 203.341 584.692 201.86C584.827 200.379 584.894 198.628 584.894 196.608C584.894 190.279 584.086 184.017 582.47 177.822C580.989 171.493 579.71 165.567 578.632 160.046C575.535 165.163 572.236 170.079 568.734 174.792C565.368 179.371 562.136 183.209 559.038 186.306C561.058 190.615 564.156 194.655 568.33 198.426C572.64 202.197 577.892 204.755 584.086 206.102ZM570.35 219.232C571.966 219.232 574.121 218.693 576.814 217.616C579.508 216.539 581.595 213.778 583.076 209.334C577.42 208.257 572.37 206.035 567.926 202.668C563.617 199.301 560.385 195.935 558.23 192.568C555.268 192.703 553.786 195.059 553.786 199.638C553.786 204.486 555.2 208.997 558.028 213.172C560.991 217.212 565.098 219.232 570.35 219.232Z" fill="black"/>
<path id="Vector" d="M687 30V286H11V30M13 31H132M689 31H559.5" stroke="black" stroke-width="4"/>
</g>
</svg>
