<svg width="747" height="312" viewBox="0 0 747 312" fill="none" xmlns="http://www.w3.org/2000/svg">
<g id="about_me_title" clip-path="url(#clip0)">
<path d="M561.036 22.9999L734 22.9999L734 294L9.00002 294L9 23L183.869 23" stroke="black" stroke-width="4"/>
<path d="M37.434 236.574C34.4713 234.823 32.586 232.938 31.778 230.918C30.97 229.033 30.566 227.417 30.566 226.07C30.566 222.299 31.9127 217.182 34.606 210.718C37.434 204.254 41.1373 196.915 45.716 188.7C50.4293 180.351 55.614 171.732 61.27 162.844C56.2873 162.44 52.0453 162.171 48.544 162.036C45.0427 161.901 42.0127 161.834 39.454 161.834H32.384C33.8653 157.929 36.424 155.235 40.06 153.754C43.8307 152.138 48.2747 151.33 53.392 151.33C55.6813 151.33 58.038 151.465 60.462 151.734C62.886 152.003 65.3773 152.34 67.936 152.744C74.804 142.375 81.8067 132.342 88.944 122.646C96.216 112.815 102.949 104.129 109.144 96.588C115.473 88.912 120.725 83.1213 124.9 79.216C128.805 75.4453 132.037 73.56 134.596 73.56C137.424 73.56 140.993 75.7147 145.302 80.024C143.955 81.1013 142.205 83.9967 140.05 88.71C138.03 93.2887 135.808 99.0793 133.384 106.082C131.095 113.085 128.805 120.761 126.516 129.11C124.227 137.459 122.072 146.011 120.052 154.764C118.167 163.383 116.618 171.597 115.406 179.408C114.329 187.219 113.79 194.087 113.79 200.012C113.79 205.129 114.329 209.102 115.406 211.93C116.618 214.758 118.571 216.172 121.264 216.172C124.765 216.172 128.738 213.748 133.182 208.9C137.626 204.052 142.474 196.511 147.726 186.276L149.746 188.296C145.706 199.069 140.521 207.89 134.192 214.758C127.997 221.626 121.533 225.06 114.8 225.06C109.279 225.06 105.239 222.636 102.68 217.788C100.256 212.805 99.044 206.207 99.044 197.992C99.044 189.373 100.189 179.341 102.478 167.894C96.5527 166.951 91.0987 166.211 86.116 165.672C81.268 164.999 76.7567 164.393 72.582 163.854C66.2527 175.57 60.058 187.623 53.998 200.012C48.0727 212.401 42.5513 224.589 37.434 236.574ZM103.892 160.824C105.912 151.936 108.269 142.981 110.962 133.958C113.655 124.801 116.483 116.115 119.446 107.9C122.543 99.6853 125.439 92.4807 128.132 86.286C123.957 88.8447 119.109 93.4233 113.588 100.022C108.201 106.486 102.478 114.431 96.418 123.858C90.358 133.15 84.1633 143.385 77.834 154.562C82.4127 155.505 86.924 156.582 91.368 157.794C95.9467 158.871 100.121 159.881 103.892 160.824ZM162.466 233.746C155.463 233.746 150.211 231.457 146.71 226.878C143.343 222.299 141.66 216.105 141.66 208.294C141.66 201.561 142.804 193.615 145.094 184.458C147.383 175.301 150.413 165.739 154.184 155.774C157.954 145.674 162.129 135.843 166.708 126.282C171.421 116.721 176.134 108.102 180.848 100.426C185.561 92.6153 190.005 86.4207 194.18 81.842C198.354 77.1287 201.788 74.772 204.482 74.772C206.771 74.772 208.387 76.186 209.33 79.014C210.407 81.842 210.946 84.67 210.946 87.498C210.946 91.2687 210.138 95.8473 208.522 101.234C206.906 106.621 204.616 112.411 201.654 118.606C198.691 124.666 195.257 130.659 191.352 136.584C187.446 142.509 183.204 147.963 178.626 152.946C174.182 157.794 169.603 161.632 164.89 164.46C164.082 165.941 162.87 169.039 161.254 173.752C159.772 178.331 158.358 183.65 157.012 189.71C155.8 195.635 155.194 201.426 155.194 207.082C155.194 212.603 156.002 217.115 157.618 220.616C159.368 224.252 162.264 226.07 166.304 226.07C170.209 226.07 174.249 224.454 178.424 221.222C182.598 218.125 185.965 214.085 188.524 209.102C183.541 206.543 179.838 202.84 177.414 197.992C174.99 193.009 173.778 188.027 173.778 183.044C173.778 176.58 175.461 171.395 178.828 167.49C182.194 163.585 186.167 161.632 190.746 161.632C194.651 161.632 197.748 163.248 200.038 166.48C202.327 169.577 203.472 174.156 203.472 180.216C203.472 184.66 202.866 189.239 201.654 193.952C200.442 198.665 198.691 203.244 196.402 207.688C198.018 208.092 199.768 208.294 201.654 208.294C206.502 208.294 210.542 207.149 213.774 204.86C217.006 202.436 219.699 199.541 221.854 196.174C224.143 192.673 226.028 189.373 227.51 186.276L229.934 188.902C226.163 198.194 221.652 204.389 216.4 207.486C211.282 210.449 206.165 211.93 201.048 211.93C198.758 211.93 196.604 211.728 194.584 211.324C190.948 217.519 186.436 222.771 181.05 227.08C175.798 231.524 169.603 233.746 162.466 233.746ZM167.112 156.582C170.882 153.619 174.518 149.849 178.02 145.27C181.656 140.691 185.022 135.843 188.12 130.726C191.217 125.474 193.978 120.357 196.402 115.374C198.826 110.391 200.711 105.88 202.058 101.84C203.404 97.8 204.078 94.77 204.078 92.75C204.078 91.6727 203.808 91.134 203.27 91.134C202.192 91.134 200.105 93.0867 197.008 96.992C194.045 100.763 190.678 105.88 186.908 112.344C183.272 118.673 179.636 125.743 176 133.554C172.364 141.23 169.401 148.906 167.112 156.582ZM190.544 205.062C192.025 201.965 193.17 198.733 193.978 195.366C194.786 191.865 195.19 188.296 195.19 184.66C195.19 179.947 194.516 176.243 193.17 173.55C191.958 170.857 190.409 169.51 188.524 169.51C186.504 169.51 184.686 170.924 183.07 173.752C181.588 176.445 180.848 179.879 180.848 184.054C180.848 187.69 181.588 191.528 183.07 195.568C184.551 199.608 187.042 202.773 190.544 205.062ZM237.116 225.464C231.325 225.464 227.218 223.646 224.794 220.01C222.37 216.509 221.158 212.199 221.158 207.082C221.158 202.907 221.831 198.598 223.178 194.154C224.524 189.71 226.275 185.535 228.43 181.63C230.719 177.725 233.21 174.56 235.904 172.136C238.732 169.712 241.56 168.5 244.388 168.5C245.6 168.5 247.014 168.837 248.63 169.51C247.418 170.587 245.936 172.607 244.186 175.57C242.57 178.398 241.021 181.697 239.54 185.468C238.058 189.104 236.779 192.74 235.702 196.376C234.759 200.012 234.288 203.109 234.288 205.668C234.288 209.708 234.961 212.671 236.308 214.556C237.654 216.307 239.405 217.182 241.56 217.182C244.388 217.182 247.754 215.701 251.66 212.738C255.565 209.641 259.403 205.735 263.174 201.022C259.403 197.925 256.44 193.885 254.286 188.902C252.266 183.785 251.256 178.6 251.256 173.348C251.256 168.904 251.996 164.729 253.478 160.824C255.094 156.919 257.383 153.821 260.346 151.532C263.308 149.108 266.877 147.896 271.052 147.896C276.573 147.896 280.276 149.377 282.162 152.34C284.047 155.303 284.99 159.006 284.99 163.45C284.99 168.702 283.71 174.56 281.152 181.024C278.593 187.353 275.361 193.481 271.456 199.406C273.88 200.753 276.438 201.426 279.132 201.426C282.229 201.426 286 200.416 290.444 198.396C294.888 196.241 298.322 192.403 300.746 186.882L303.17 188.902C300.476 195.231 296.638 199.743 291.656 202.436C286.808 204.995 282.162 206.274 277.718 206.274C274.082 206.274 270.85 205.601 268.022 204.254C263.443 210.314 258.393 215.364 252.872 219.404C247.485 223.444 242.233 225.464 237.116 225.464ZM266.81 195.77C270.176 190.787 272.937 185.603 275.092 180.216C277.381 174.695 278.526 169.51 278.526 164.662C278.526 160.757 277.92 157.929 276.708 156.178C275.63 154.293 274.216 153.35 272.466 153.35C269.772 153.35 267.012 155.303 264.184 159.208C261.356 163.113 259.942 168.029 259.942 173.954C259.942 177.859 260.48 181.832 261.558 185.872C262.77 189.777 264.52 193.077 266.81 195.77ZM312.105 225.06C307.526 225.06 303.823 223.04 300.995 219C298.302 214.825 296.955 210.045 296.955 204.658C296.955 200.753 297.561 196.241 298.773 191.124C300.12 186.007 301.736 180.957 303.621 175.974C305.506 170.991 307.459 166.884 309.479 163.652C311.499 160.42 313.25 158.804 314.731 158.804C315.404 158.804 316.549 159.208 318.165 160.016C319.781 160.689 321.128 161.632 322.205 162.844C320.724 165.133 318.906 168.635 316.751 173.348C314.596 178.061 312.711 183.111 311.095 188.498C309.479 193.885 308.671 198.867 308.671 203.446C308.671 204.523 308.806 206.207 309.075 208.496C309.344 210.651 310.018 212.603 311.095 214.354C312.172 216.105 313.788 216.98 315.943 216.98C318.502 216.98 321.128 215.701 323.821 213.142C326.514 210.449 329.208 207.015 331.901 202.84C334.729 198.665 337.422 194.154 339.981 189.306C342.54 184.458 344.896 179.812 347.051 175.368C349.34 170.924 351.226 167.221 352.707 164.258C353.515 164.393 354.66 164.662 356.141 165.066C357.757 165.47 359.171 166.009 360.383 166.682C361.73 167.355 362.403 168.298 362.403 169.51C362.403 170.049 361.73 171.867 360.383 174.964C359.036 177.927 357.42 181.63 355.535 186.074C353.784 190.383 352.236 194.76 350.889 199.204C349.542 203.648 348.869 207.553 348.869 210.92C348.869 213.344 349.34 215.297 350.283 216.778C351.36 218.259 353.111 219 355.535 219C358.363 219 361.797 217.721 365.837 215.162C369.877 212.603 373.984 208.9 378.159 204.052C382.334 199.069 386.037 193.144 389.269 186.276L391.895 188.094C389.067 195.366 385.364 201.83 380.785 207.486C376.206 213.007 371.358 217.317 366.241 220.414C361.124 223.511 356.141 225.06 351.293 225.06C345.906 225.06 342.203 223.579 340.183 220.616C338.163 217.788 337.153 214.287 337.153 210.112C337.153 208.496 337.288 206.88 337.557 205.264C337.826 203.513 338.163 201.763 338.567 200.012C334.796 206.611 330.689 212.469 326.245 217.586C321.936 222.569 317.222 225.06 312.105 225.06ZM402.697 228.292C390.712 228.292 384.719 221.626 384.719 208.294C384.719 202.369 385.797 195.097 387.951 186.478C390.241 177.725 393.069 168.769 396.435 159.612C395.089 159.343 393.809 159.141 392.597 159.006C391.385 158.737 390.241 158.4 389.163 157.996V154.36C390.241 154.495 391.52 154.629 393.001 154.764C394.483 154.899 396.166 155.033 398.051 155.168C400.879 147.896 403.909 140.893 407.141 134.16C410.373 127.292 413.538 121.232 416.635 115.98C419.867 110.593 422.897 106.351 425.725 103.254C428.688 100.022 431.179 98.406 433.199 98.406C434.277 98.406 435.219 98.81 436.027 99.618C436.97 100.291 437.441 101.369 437.441 102.85C437.441 105.139 436.027 108.91 433.199 114.162C430.371 119.279 426.87 125.407 422.695 132.544C418.521 139.681 414.481 147.425 410.575 155.774H418.049C422.493 155.774 427.139 155.707 431.987 155.572C436.97 155.437 441.953 155.101 446.935 154.562V158.198C432.257 159.814 420.406 160.622 411.383 160.622H408.353C405.256 167.759 402.63 175.099 400.475 182.64C398.321 190.181 397.243 197.521 397.243 204.658C397.243 210.449 398.119 214.623 399.869 217.182C401.62 219.606 404.515 220.818 408.555 220.818C415.558 220.818 422.426 217.721 429.159 211.526C435.893 205.331 441.818 196.915 446.935 186.276L449.561 188.296C446.329 195.837 442.222 202.638 437.239 208.698C432.391 214.758 427.005 219.539 421.079 223.04C415.154 226.541 409.027 228.292 402.697 228.292ZM492.168 236.574C492.976 234.689 495.198 229.706 498.834 221.626C502.47 213.681 507.183 203.311 512.974 190.518C518.899 177.59 525.498 162.979 532.77 146.684C540.176 130.255 547.987 112.883 556.202 94.568C556.606 93.6253 557.01 92.4133 557.414 90.932C557.952 89.316 558.222 87.7673 558.222 86.286C558.222 84.8047 557.75 83.5927 556.808 82.65C556 81.5727 554.182 81.034 551.354 81.034C545.698 81.034 540.984 82.9867 537.214 86.892C533.578 90.6627 530.817 95.376 528.932 101.032C527.181 106.688 526.306 112.277 526.306 117.798C526.306 119.145 526.306 120.289 526.306 121.232C526.44 122.175 526.575 123.117 526.71 124.06C524.151 124.06 522.064 123.185 520.448 121.434C518.966 119.549 517.822 117.327 517.014 114.768C516.34 112.075 516.004 109.651 516.004 107.496C516.004 103.052 517.216 98.81 519.64 94.77C522.064 90.73 525.161 87.094 528.932 83.862C532.837 80.63 537.079 78.1387 541.658 76.388C546.371 74.5027 550.95 73.56 555.394 73.56C559.838 73.56 563.541 74.8393 566.504 77.398C569.601 79.822 571.89 84.266 573.372 90.73C574.988 97.194 575.796 106.553 575.796 118.808C575.796 127.157 575.459 136.045 574.786 145.472C574.247 154.899 573.641 164.191 572.968 173.348C572.294 182.505 571.823 190.855 571.554 198.396C573.708 190.181 576.738 181.428 580.644 172.136C584.684 162.844 589.06 153.619 593.774 144.462C598.622 135.17 603.402 126.484 608.116 118.404C612.829 110.324 617.071 103.321 620.842 97.396C624.612 91.4707 627.373 87.1613 629.124 84.468C631.009 81.7747 632.625 79.7547 633.972 78.408C635.318 76.9267 637.069 76.186 639.224 76.186C641.109 76.186 643.264 76.6573 645.688 77.6C644.745 80.024 643.398 83.66 641.648 88.508C640.032 93.2213 638.348 99.012 636.598 105.88C634.443 114.095 632.288 123.454 630.134 133.958C627.979 144.327 625.959 154.899 624.074 165.672C622.323 176.445 620.909 186.613 619.832 196.174C618.754 205.601 618.216 213.546 618.216 220.01C618.216 222.973 618.35 225.262 618.62 226.878C618.889 228.494 619.226 229.908 619.63 231.12C620.168 232.467 620.707 234.285 621.246 236.574C614.243 236.574 609.732 234.823 607.712 231.322C605.692 227.955 604.682 222.165 604.682 213.95C604.682 197.925 606.702 180.755 610.742 162.44C614.916 143.991 619.63 124.868 624.882 105.072C620.976 110.055 616.869 116.384 612.56 124.06C608.385 131.601 604.143 139.816 599.834 148.704C595.659 157.457 591.619 166.278 587.714 175.166C583.943 183.919 580.576 192.067 577.614 199.608C574.651 207.149 572.362 213.411 570.746 218.394C569.938 218.663 569.399 218.865 569.13 219C568.86 219.135 568.389 219.202 567.716 219.202C564.08 219.202 561.656 217.047 560.444 212.738C559.366 208.429 558.828 202.369 558.828 194.558C558.828 189.037 558.962 182.505 559.232 174.964C559.636 167.288 560.04 159.41 560.444 151.33C560.848 143.25 561.184 135.507 561.454 128.1C561.858 120.559 562.06 114.095 562.06 108.708C562.06 106.015 561.992 103.793 561.858 102.042C561.858 100.291 561.79 98.7427 561.656 97.396C550.882 122.444 541.86 143.856 534.588 161.632C527.316 179.273 521.188 193.615 516.206 204.658C511.358 215.701 507.048 223.781 503.278 228.898C499.507 234.015 495.804 236.574 492.168 236.574ZM665.959 227.888C657.744 227.888 651.549 225.599 647.375 221.02C643.335 216.576 641.315 211.055 641.315 204.456C641.315 198.396 642.796 191.999 645.759 185.266C648.856 178.533 652.896 172.203 657.879 166.278C662.996 160.353 668.585 155.572 674.645 151.936C680.705 148.165 686.697 146.28 692.623 146.28C695.72 146.28 698.548 147.088 701.107 148.704C703.8 150.32 705.147 153.619 705.147 158.602C705.147 163.719 703.598 168.567 700.501 173.146C697.538 177.59 693.565 181.563 688.583 185.064C683.735 188.565 678.348 191.461 672.423 193.75C666.632 195.905 660.841 197.251 655.051 197.79C654.781 199.137 654.579 200.416 654.445 201.628C654.31 202.84 654.243 203.985 654.243 205.062C654.243 209.237 655.32 213.142 657.475 216.778C659.764 220.279 664.006 222.03 670.201 222.03C675.991 222.03 681.715 220.414 687.371 217.182C693.027 213.815 698.279 209.439 703.127 204.052C707.975 198.665 712.082 192.74 715.449 186.276L717.873 188.094C714.237 196.174 709.591 203.177 703.935 209.102C698.413 215.027 692.353 219.606 685.755 222.838C679.291 226.205 672.692 227.888 665.959 227.888ZM656.061 193.952C659.697 192.74 663.804 190.989 668.383 188.7C672.961 186.276 677.338 183.448 681.513 180.216C685.822 176.984 689.323 173.415 692.017 169.51C694.845 165.605 696.259 161.497 696.259 157.188C696.259 155.707 695.989 154.562 695.451 153.754C694.912 152.946 693.767 152.542 692.017 152.542C688.785 152.542 685.351 153.821 681.715 156.38C678.079 158.804 674.577 162.036 671.211 166.076C667.844 170.116 664.814 174.56 662.121 179.408C659.427 184.256 657.407 189.104 656.061 193.952Z" fill="black"/>
<path d="M270.981 42H275.527L279.786 17.2368L280.049 15.7534L280.289 17.2129L284.523 42H289.045L293.28 7.16406H289.093L286.581 31.1377L286.438 32.5732L286.174 31.1616L281.939 7.16406H278.087L273.876 31.1377L273.613 32.5732L273.47 31.1855L270.958 7.16406H266.747L270.981 42ZM320.436 42V7.16406H316.249V22.1416H301.965V7.16406H297.802V42H301.965V25.8979H316.249V42H320.436ZM350.678 26.5918V22.6201C350.662 21.376 350.551 20.1159 350.343 18.8398C350.152 17.5638 349.849 16.3356 349.434 15.1553C349.003 13.9749 348.461 12.8743 347.807 11.8535C347.169 10.8167 346.403 9.91553 345.51 9.1499C344.617 8.38428 343.588 7.78613 342.424 7.35547C341.259 6.90885 339.959 6.68555 338.524 6.68555C337.088 6.68555 335.788 6.90885 334.624 7.35547C333.476 7.78613 332.455 8.38428 331.562 9.1499C330.668 9.93148 329.895 10.8407 329.241 11.8774C328.603 12.8983 328.076 13.9989 327.662 15.1792C327.231 16.3595 326.912 17.5877 326.705 18.8638C326.513 20.1239 326.41 21.376 326.394 22.6201V26.5918C326.41 27.8359 326.521 29.0881 326.729 30.3481C326.936 31.6082 327.255 32.8285 327.686 34.0088C328.1 35.1891 328.635 36.2977 329.289 37.3345C329.943 38.3553 330.716 39.2485 331.609 40.0142C332.503 40.7798 333.523 41.3859 334.672 41.8325C335.836 42.2632 337.136 42.4785 338.572 42.4785C340.007 42.4785 341.299 42.2632 342.448 41.8325C343.612 41.3859 344.641 40.7798 345.534 40.0142C346.427 39.2485 347.193 38.3553 347.831 37.3345C348.485 36.3136 349.019 35.2131 349.434 34.0327C349.849 32.8524 350.152 31.6322 350.343 30.3721C350.551 29.096 350.662 27.8359 350.678 26.5918ZM346.3 22.5723V26.5918C346.284 27.4212 346.228 28.2905 346.132 29.1997C346.053 30.1089 345.901 31.0021 345.678 31.8794C345.438 32.7726 345.127 33.626 344.745 34.4395C344.378 35.237 343.915 35.9388 343.357 36.5449C342.783 37.167 342.097 37.6615 341.299 38.0283C340.518 38.3952 339.609 38.5786 338.572 38.5786C337.535 38.5786 336.626 38.3952 335.844 38.0283C335.063 37.6615 334.385 37.167 333.811 36.5449C333.236 35.9388 332.758 35.229 332.375 34.4155C331.992 33.6021 331.681 32.7487 331.442 31.8555C331.203 30.9782 331.027 30.085 330.916 29.1758C330.82 28.2666 330.764 27.4053 330.748 26.5918V22.5723C330.764 21.7588 330.82 20.9054 330.916 20.0122C331.027 19.103 331.203 18.2018 331.442 17.3086C331.665 16.4313 331.968 15.5939 332.351 14.7964C332.734 13.9829 333.212 13.2651 333.787 12.6431C334.361 12.0369 335.039 11.5505 335.82 11.1836C336.602 10.8167 337.503 10.6333 338.524 10.6333C339.561 10.6333 340.47 10.8167 341.251 11.1836C342.033 11.5345 342.711 12.013 343.285 12.6191C343.859 13.2412 344.338 13.959 344.721 14.7725C345.104 15.57 345.415 16.4074 345.654 17.2847C345.877 18.1779 346.037 19.0791 346.132 19.9883C346.228 20.8815 346.284 21.7428 346.3 22.5723ZM403.506 32.98L406.258 42H410.66L399.606 7.16406H395.898L384.653 42H389.079L391.878 32.98H403.506ZM393.075 29.1279L397.74 14.0068L402.334 29.1279H393.075ZM421.164 7.16406H415.685V42H419.991V28.0991L419.632 14.0547L425.542 32.3101H428.078L434.514 13.5522L434.155 28.0991V42H438.462V7.16406H432.959L426.834 24.582L421.164 7.16406ZM475.164 7.16406V11.0161H483.323V38.1719H475.164V42H496.219V38.1719H487.869V11.0161H496.219V7.16406H475.164Z" fill="black"/>
</g>
<defs>
<clipPath id="clip0">
<rect width="747" height="312" fill="white"/>
</clipPath>
</defs>
</svg>
