<svg width="747" height="312" viewBox="0 0 747 312" fill="none" xmlns="http://www.w3.org/2000/svg">
<g clip-path="url(#clip0)">
<path d="M480.679 23L594 23L594 294L119 294L119 23L233.569 23" stroke="black" stroke-width="4"/>
<path d="M201.006 245.574C193.734 245.574 186.866 244.227 180.402 241.534C173.938 238.975 168.686 235.003 164.646 229.616C160.741 224.229 158.788 217.496 158.788 209.416C158.788 202.413 160.135 196.959 162.828 193.054C165.656 189.149 169.09 186.388 173.13 184.772C177.17 183.156 181.008 182.348 184.644 182.348C181.008 186.253 178.247 190.563 176.362 195.276C174.477 199.989 173.534 204.703 173.534 209.416C173.534 214.399 174.611 219.045 176.766 223.354C179.055 227.663 182.489 231.097 187.068 233.656C191.647 236.349 197.437 237.696 204.44 237.696C210.5 237.696 216.425 236.551 222.216 234.262C228.007 232.107 232.72 228.875 236.356 224.566C240.127 220.122 242.012 214.668 242.012 208.204C242.012 202.413 240.531 197.431 237.568 193.256C234.605 189.081 230.767 185.378 226.054 182.146C221.475 178.914 216.56 175.817 211.308 172.854C206.056 169.891 201.073 166.794 196.36 163.562C191.781 160.195 188.011 156.357 185.048 152.048C182.085 147.739 180.604 142.554 180.604 136.494C180.604 130.838 181.951 124.913 184.644 118.718C187.337 112.523 191.175 106.665 196.158 101.144C201.275 95.6227 207.335 91.1787 214.338 87.812C221.475 84.3107 229.421 82.56 238.174 82.56C246.119 82.56 251.641 84.5127 254.738 88.418C257.835 92.1887 259.384 96.9693 259.384 102.76C259.384 107.608 258.509 112.86 256.758 118.516C255.142 124.037 253.122 129.357 250.698 134.474C248.274 139.457 245.985 143.699 243.83 147.2C241.406 146.661 239.655 145.651 238.578 144.17C237.635 142.554 237.164 140.669 237.164 138.514C237.164 135.686 237.77 132.454 238.982 128.818C240.194 125.182 241.541 121.411 243.022 117.506C244.638 113.601 246.052 109.83 247.264 106.194C248.476 102.423 249.082 99.0567 249.082 96.094C249.082 93.4007 248.274 91.3133 246.658 89.832C245.042 88.216 242.079 87.408 237.77 87.408C231.441 87.408 225.583 88.8893 220.196 91.852C214.809 94.8147 210.096 98.6527 206.056 103.366C202.016 107.945 198.851 112.793 196.562 117.91C194.407 123.027 193.33 127.673 193.33 131.848C193.33 136.831 194.744 141.14 197.572 144.776C200.535 148.277 204.305 151.509 208.884 154.472C213.463 157.3 218.311 160.195 223.428 163.158C228.68 165.986 233.595 169.151 238.174 172.652C242.753 176.153 246.456 180.328 249.284 185.176C252.247 189.889 253.728 195.68 253.728 202.548C253.728 209.551 252.179 215.745 249.082 221.132C245.985 226.384 241.81 230.828 236.558 234.464C231.441 238.1 225.785 240.861 219.59 242.746C213.395 244.631 207.201 245.574 201.006 245.574ZM328.293 235.676C324.522 235.676 321.29 234.397 318.597 231.838C315.903 229.279 313.749 226.047 312.133 222.142C310.651 218.237 309.507 214.264 308.699 210.224C308.025 206.049 307.689 202.413 307.689 199.316C309.17 199.316 311.325 198.979 314.153 198.306C316.981 197.498 319.876 196.353 322.839 194.872C325.801 193.256 328.293 191.236 330.313 188.812C332.467 186.253 333.545 183.291 333.545 179.924C333.545 177.096 332.535 174.874 330.515 173.258C328.495 171.642 326.138 170.834 323.445 170.834C319.27 170.834 315.365 172.315 311.729 175.278C308.093 178.106 304.793 181.877 301.831 186.59C299.003 191.169 296.444 196.084 294.155 201.336C291.865 206.588 289.913 211.571 288.297 216.284C286.681 220.997 285.334 224.903 284.257 228C283.449 230.424 282.304 232.04 280.823 232.848C279.341 233.791 277.793 234.262 276.177 234.262C273.887 234.262 272.204 233.319 271.127 231.434C270.184 229.549 269.578 227.192 269.309 224.364C269.174 221.401 269.107 218.371 269.107 215.274C269.107 208.271 270.251 200.191 272.541 191.034C274.83 181.877 277.86 172.383 281.631 162.552C285.536 152.587 289.778 142.958 294.357 133.666C298.935 124.374 303.514 115.957 308.093 108.416C312.671 100.875 316.913 94.882 320.819 90.438C324.724 85.994 327.889 83.772 330.313 83.772C332.198 83.772 333.679 85.0513 334.757 87.61C335.969 90.1687 336.575 93.266 336.575 96.902C336.575 101.481 335.565 106.665 333.545 112.456C331.525 118.112 328.629 123.835 324.859 129.626C321.223 135.417 316.846 140.871 311.729 145.988C306.746 151.105 301.292 155.482 295.367 159.118C290.923 170.026 287.556 180.665 285.267 191.034C283.112 201.269 282.035 209.887 282.035 216.89C284.189 211.503 286.748 205.578 289.711 199.114C292.808 192.65 296.309 186.455 300.215 180.53C304.12 174.605 308.362 169.757 312.941 165.986C317.519 162.215 322.3 160.33 327.283 160.33C332.266 160.33 336.507 162.081 340.009 165.582C343.51 169.083 345.261 173.325 345.261 178.308C345.261 182.617 344.116 186.321 341.827 189.418C339.672 192.381 336.979 194.805 333.747 196.69C330.649 198.441 327.485 199.787 324.253 200.73C321.155 201.538 318.597 201.942 316.577 201.942C316.711 203.019 317.115 204.972 317.789 207.8C318.462 210.628 319.405 213.591 320.617 216.688C321.963 219.785 323.579 222.479 325.465 224.768C327.35 226.923 329.639 228 332.333 228C338.123 228 343.51 224.835 348.493 218.506C353.475 212.042 358.054 204.231 362.229 195.074L364.249 197.094C362.363 203.693 359.468 209.955 355.563 215.88C351.657 221.671 347.281 226.384 342.433 230.02C337.719 233.791 333.006 235.676 328.293 235.676ZM298.801 151.038C304.995 146.055 310.382 140.399 314.961 134.07C319.674 127.741 323.31 121.681 325.869 115.89C328.427 109.965 329.707 105.319 329.707 101.952C329.707 100.74 329.505 100.134 329.101 100.134C327.754 100.134 325.397 102.491 322.031 107.204C318.799 111.917 315.095 118.179 310.921 125.99C306.746 133.666 302.706 142.015 298.801 151.038ZM397.233 140.736C395.079 140.736 393.126 140.197 391.375 139.12C389.759 138.043 388.951 136.359 388.951 134.07C388.951 131.242 390.567 128.818 393.799 126.798C397.166 124.643 400.465 123.566 403.697 123.566C405.717 123.566 407.333 124.037 408.545 124.98C409.757 125.923 410.363 127.539 410.363 129.828C410.363 132.387 408.949 134.878 406.121 137.302C403.428 139.591 400.465 140.736 397.233 140.736ZM372.993 233.252C367.741 233.252 363.836 231.569 361.277 228.202C358.719 224.97 357.439 220.997 357.439 216.284C357.439 213.187 357.978 209.281 359.055 204.568C360.267 199.855 361.816 194.939 363.701 189.822C365.587 184.57 367.741 179.655 370.165 175.076C372.724 170.497 375.417 166.794 378.245 163.966C381.073 161.003 383.834 159.522 386.527 159.522C387.739 159.522 388.749 159.926 389.557 160.734C390.5 161.407 390.971 162.485 390.971 163.966C390.971 165.582 389.894 168.208 387.739 171.844C385.719 175.48 383.295 179.655 380.467 184.368C377.639 189.081 375.148 194.064 372.993 199.316C370.973 204.433 369.963 209.349 369.963 214.062C369.963 218.91 370.771 222.142 372.387 223.758C374.003 225.374 376.495 226.182 379.861 226.182C384.44 226.182 389.288 223.893 394.405 219.314C399.657 214.735 405.179 206.723 410.969 195.276L412.787 197.296C408.882 208.877 403.226 217.765 395.819 223.96C388.547 230.155 380.939 233.252 372.993 233.252ZM423.94 234.06C418.149 234.06 413.974 232.04 411.416 228C408.992 224.095 407.78 219.179 407.78 213.254C407.78 206.79 408.992 199.114 411.416 190.226C413.84 181.338 417.004 171.979 420.91 162.148C424.95 152.317 429.326 142.756 434.04 133.464C438.753 124.037 443.466 115.486 448.18 107.81C452.893 100.134 457.202 94.0067 461.108 89.428C465.148 84.8493 468.312 82.56 470.602 82.56C472.083 82.56 473.295 83.4353 474.238 85.186C475.18 86.802 475.921 88.822 476.46 91.246C476.998 93.5353 477.268 95.6227 477.268 97.508C477.268 101.144 476.325 105.925 474.44 111.85C472.689 117.641 470.13 124.172 466.764 131.444C463.532 138.581 459.626 145.853 455.048 153.26C450.604 160.532 445.688 167.535 440.302 174.268C435.05 181.001 429.461 186.792 423.536 191.64C422.728 195.276 422.054 198.845 421.516 202.346C421.112 205.713 420.91 208.945 420.91 212.042C420.91 222.411 423.872 227.596 429.798 227.596C433.03 227.596 436.262 226.249 439.494 223.556C442.86 220.728 446.025 217.159 448.988 212.85C452.085 208.541 454.778 203.962 457.068 199.114C458.414 192.111 460.434 184.637 463.128 176.692C465.821 168.612 468.918 160.532 472.42 152.452C475.921 144.372 479.624 136.629 483.53 129.222C487.435 121.815 491.273 115.217 495.044 109.426C498.815 103.635 502.316 99.0567 505.548 95.69C508.78 92.3233 511.406 90.64 513.426 90.64C514.907 90.64 516.119 91.5153 517.062 93.266C518.004 94.882 518.745 96.902 519.284 99.326C519.822 101.615 520.092 103.703 520.092 105.588C520.092 110.032 518.947 115.89 516.658 123.162C514.369 130.299 511.069 137.975 506.76 146.19C502.585 154.405 497.468 162.552 491.408 170.632C485.482 178.577 478.816 185.58 471.41 191.64C470.602 195.276 469.928 198.845 469.39 202.346C468.986 205.713 468.784 208.945 468.784 212.042C468.784 222.411 471.746 227.596 477.672 227.596C481.308 227.596 484.876 225.98 488.378 222.748C492.014 219.516 495.38 215.476 498.478 210.628C501.71 205.645 504.47 200.528 506.76 195.276L509.79 196.892C504.403 208.339 498.545 217.429 492.216 224.162C485.886 230.761 479.086 234.06 471.814 234.06C465.35 234.06 460.906 231.636 458.482 226.788C456.058 221.94 455.182 215.88 455.856 208.608C451.142 216.553 446.092 222.815 440.706 227.394C435.454 231.838 429.865 234.06 423.94 234.06ZM425.354 184.772C430.067 180.059 434.646 174.672 439.09 168.612C443.534 162.417 447.641 156.021 451.412 149.422C455.317 142.823 458.751 136.427 461.714 130.232C464.676 124.037 466.966 118.516 468.582 113.668C470.198 108.685 471.006 104.847 471.006 102.154C471.006 100.807 470.804 99.932 470.4 99.528C470.13 99.124 469.861 98.922 469.592 98.922C468.514 98.922 466.629 100.673 463.936 104.174C461.377 107.541 458.347 112.119 454.846 117.91C451.344 123.701 447.776 130.299 444.14 137.706C440.504 145.113 437.002 152.856 433.636 160.936C430.404 169.016 427.643 176.961 425.354 184.772ZM473.228 184.772C479.153 178.847 484.54 172.315 489.388 165.178C494.37 158.041 498.68 150.903 502.316 143.766C505.952 136.629 508.78 130.097 510.8 124.172C512.82 118.247 513.83 113.601 513.83 110.234C513.83 108.887 513.628 108.012 513.224 107.608C512.954 107.204 512.685 107.002 512.416 107.002C511.069 107.002 508.78 109.224 505.548 113.668C502.45 117.977 498.882 123.835 494.842 131.242C490.936 138.649 487.031 146.998 483.126 156.29C479.355 165.582 476.056 175.076 473.228 184.772ZM523.86 238.302C517.531 238.302 512.481 236.888 508.71 234.06C505.074 231.367 502.516 228 501.034 223.96C499.418 219.92 498.61 215.88 498.61 211.84C498.61 207.8 499.149 204.703 500.226 202.548C501.304 200.393 502.583 198.777 504.064 197.7C505.68 196.623 507.162 195.815 508.508 195.276C509.99 194.737 511 194.199 511.538 193.66C515.578 189.216 519.282 184.57 522.648 179.722C526.015 174.874 528.978 169.757 531.536 164.37V161.946C531.536 156.963 532.344 153.462 533.96 151.442C535.711 149.287 537.529 148.21 539.414 148.21C541.569 148.21 542.646 149.085 542.646 150.836C542.646 151.509 542.444 152.587 542.04 154.068C541.636 155.549 541.434 157.435 541.434 159.724C541.434 164.168 542.31 169.016 544.06 174.268C545.811 179.385 547.562 184.839 549.312 190.63C551.063 196.286 551.938 202.211 551.938 208.406C551.938 211.907 551.534 215.207 550.726 218.304C555.44 217.496 559.884 215.409 564.058 212.042C568.233 208.541 572.273 203.019 576.178 195.478L577.996 197.498C575.438 204.905 571.6 210.561 566.482 214.466C561.365 218.237 555.776 220.593 549.716 221.536C547.562 227.327 544.128 231.569 539.414 234.262C534.836 236.955 529.651 238.302 523.86 238.302ZM538 218.102C538.27 216.755 538.472 215.341 538.606 213.86C538.741 212.379 538.808 210.628 538.808 208.608C538.808 202.279 538 196.017 536.384 189.822C534.903 183.493 533.624 177.567 532.546 172.046C529.449 177.163 526.15 182.079 522.648 186.792C519.282 191.371 516.05 195.209 512.952 198.306C514.972 202.615 518.07 206.655 522.244 210.426C526.554 214.197 531.806 216.755 538 218.102ZM524.264 231.232C525.88 231.232 528.035 230.693 530.728 229.616C533.422 228.539 535.509 225.778 536.99 221.334C531.334 220.257 526.284 218.035 521.84 214.668C517.531 211.301 514.299 207.935 512.144 204.568C509.182 204.703 507.7 207.059 507.7 211.638C507.7 216.486 509.114 220.997 511.942 225.172C514.905 229.212 519.012 231.232 524.264 231.232Z" fill="black"/>
<path d="M265.449 11.916V8.98438H245.41V11.916H253.76V36H257.1V11.916H265.449ZM284.913 23.5127V20.5996H273.632V11.916H286.62V8.98438H270.199V36H286.787V33.0869H273.632V23.5127H284.913ZM310.37 27.873H306.938C306.826 28.6895 306.634 29.4502 306.362 30.1553C306.09 30.848 305.725 31.4479 305.268 31.9551C304.81 32.4746 304.247 32.8766 303.579 33.1611C302.924 33.4456 302.144 33.5879 301.241 33.5879C300.412 33.5879 299.689 33.458 299.07 33.1982C298.452 32.9261 297.914 32.555 297.456 32.085C296.998 31.6273 296.621 31.0954 296.324 30.4893C296.027 29.8831 295.786 29.2337 295.601 28.541C295.415 27.8607 295.279 27.168 295.192 26.4629C295.118 25.7454 295.081 25.0527 295.081 24.3848V20.5811C295.081 19.9131 295.118 19.2266 295.192 18.5215C295.279 17.804 295.415 17.1051 295.601 16.4248C295.786 15.7445 296.027 15.1012 296.324 14.4951C296.633 13.889 297.017 13.3571 297.475 12.8994C297.92 12.4417 298.452 12.083 299.07 11.8232C299.701 11.5511 300.425 11.415 301.241 11.415C302.144 11.415 302.924 11.5697 303.579 11.8789C304.247 12.1758 304.81 12.5902 305.268 13.1221C305.725 13.654 306.09 14.2725 306.362 14.9775C306.634 15.6826 306.826 16.4434 306.938 17.2598H310.37C310.222 15.9733 309.912 14.7982 309.442 13.7344C308.985 12.6706 308.372 11.7552 307.605 10.9883C306.839 10.2337 305.923 9.65234 304.859 9.24414C303.796 8.82357 302.59 8.61328 301.241 8.61328C300.116 8.61328 299.101 8.77409 298.198 9.0957C297.295 9.40495 296.491 9.83789 295.786 10.3945C295.069 10.9512 294.45 11.613 293.931 12.3799C293.424 13.1344 293.003 13.957 292.669 14.8477C292.323 15.7383 292.063 16.6722 291.89 17.6494C291.729 18.6266 291.642 19.6162 291.63 20.6182V24.3848C291.642 25.3867 291.729 26.3763 291.89 27.3535C292.063 28.3307 292.323 29.2646 292.669 30.1553C293.003 31.0459 293.424 31.8685 293.931 32.623C294.45 33.3776 295.069 34.0332 295.786 34.5898C296.491 35.1465 297.295 35.5856 298.198 35.9072C299.114 36.2165 300.128 36.3711 301.241 36.3711C302.54 36.3711 303.715 36.167 304.767 35.7588C305.83 35.3382 306.752 34.7507 307.531 33.9961C308.298 33.2539 308.923 32.3633 309.405 31.3242C309.888 30.2728 310.209 29.1224 310.37 27.873ZM332.636 36V8.98438H329.389V20.5996H318.312V8.98438H315.083V36H318.312V23.5127H329.389V36H332.636ZM375.479 29.1719C375.479 29.9141 375.318 30.5573 374.996 31.1016C374.674 31.6335 374.26 32.0726 373.753 32.4189C373.246 32.7777 372.664 33.0436 372.009 33.2168C371.366 33.3776 370.71 33.458 370.042 33.458C369.201 33.458 368.422 33.3467 367.704 33.124C366.999 32.889 366.374 32.5426 365.83 32.085C365.286 31.6396 364.84 31.0954 364.494 30.4521C364.148 29.7965 363.919 29.0482 363.808 28.207H360.301C360.338 29.3698 360.591 30.4274 361.062 31.3799C361.544 32.32 362.193 33.1426 363.01 33.8477C363.925 34.6641 365.001 35.2887 366.238 35.7217C367.488 36.1546 368.756 36.3711 370.042 36.3711C371.118 36.3711 372.194 36.2227 373.271 35.9258C374.347 35.6165 375.312 35.1589 376.165 34.5527C377.019 33.959 377.711 33.2106 378.243 32.3076C378.787 31.4046 379.06 30.347 379.06 29.1348C379.06 27.9349 378.806 26.8773 378.299 25.9619C377.804 25.0465 377.148 24.2734 376.332 23.6426C375.503 22.9622 374.588 22.4056 373.586 21.9727C372.584 21.5273 371.582 21.1501 370.58 20.8408C369.974 20.6553 369.325 20.4388 368.632 20.1914C367.951 19.944 367.321 19.6348 366.739 19.2637C366.146 18.8926 365.657 18.4411 365.273 17.9092C364.89 17.3649 364.692 16.7031 364.68 15.9238C364.68 15.2064 364.822 14.5755 365.106 14.0312C365.403 13.487 365.799 13.0293 366.294 12.6582C366.776 12.2871 367.327 12.0088 367.945 11.8232C368.576 11.6377 369.219 11.5449 369.875 11.5449C370.691 11.5449 371.421 11.6748 372.064 11.9346C372.72 12.182 373.283 12.5345 373.753 12.9922C374.223 13.4499 374.6 14.0003 374.885 14.6436C375.169 15.2744 375.361 15.9795 375.46 16.7588H378.985C378.961 15.5218 378.695 14.4023 378.188 13.4004C377.68 12.3984 377.006 11.5449 376.165 10.8398C375.324 10.1348 374.359 9.59049 373.271 9.20703C372.182 8.8112 371.05 8.61328 369.875 8.61328C368.811 8.61328 367.754 8.78027 366.702 9.11426C365.651 9.43587 364.711 9.91211 363.882 10.543C363.053 11.1738 362.379 11.9469 361.859 12.8623C361.352 13.7777 361.099 14.8167 361.099 15.9795C361.099 17.1423 361.352 18.1566 361.859 19.0225C362.379 19.876 363.047 20.6182 363.863 21.249C364.667 21.8675 365.558 22.3994 366.535 22.8447C367.525 23.2777 368.496 23.6488 369.448 23.958C370.104 24.1683 370.784 24.4033 371.489 24.6631C372.207 24.9229 372.862 25.2445 373.456 25.6279C374.05 26.0238 374.532 26.5062 374.903 27.0752C375.287 27.6442 375.479 28.3431 375.479 29.1719ZM402.383 11.916V8.98438H382.344V11.916H390.693V36H394.033V11.916H402.383ZM419.88 29.0049L422.014 36H425.428L416.855 8.98438H413.979L405.259 36H408.691L410.862 29.0049H419.88ZM411.79 26.0176L415.408 14.291L418.971 26.0176H411.79ZM447.304 27.873H443.871C443.76 28.6895 443.568 29.4502 443.296 30.1553C443.024 30.848 442.659 31.4479 442.201 31.9551C441.743 32.4746 441.181 32.8766 440.513 33.1611C439.857 33.4456 439.078 33.5879 438.175 33.5879C437.346 33.5879 436.622 33.458 436.004 33.1982C435.385 32.9261 434.847 32.555 434.39 32.085C433.932 31.6273 433.555 31.0954 433.258 30.4893C432.961 29.8831 432.72 29.2337 432.534 28.541C432.349 27.8607 432.213 27.168 432.126 26.4629C432.052 25.7454 432.015 25.0527 432.015 24.3848V20.5811C432.015 19.9131 432.052 19.2266 432.126 18.5215C432.213 17.804 432.349 17.1051 432.534 16.4248C432.72 15.7445 432.961 15.1012 433.258 14.4951C433.567 13.889 433.951 13.3571 434.408 12.8994C434.854 12.4417 435.385 12.083 436.004 11.8232C436.635 11.5511 437.358 11.415 438.175 11.415C439.078 11.415 439.857 11.5697 440.513 11.8789C441.181 12.1758 441.743 12.5902 442.201 13.1221C442.659 13.654 443.024 14.2725 443.296 14.9775C443.568 15.6826 443.76 16.4434 443.871 17.2598H447.304C447.155 15.9733 446.846 14.7982 446.376 13.7344C445.918 12.6706 445.306 11.7552 444.539 10.9883C443.772 10.2337 442.857 9.65234 441.793 9.24414C440.729 8.82357 439.523 8.61328 438.175 8.61328C437.049 8.61328 436.035 8.77409 435.132 9.0957C434.229 9.40495 433.425 9.83789 432.72 10.3945C432.002 10.9512 431.384 11.613 430.864 12.3799C430.357 13.1344 429.937 13.957 429.603 14.8477C429.256 15.7383 428.996 16.6722 428.823 17.6494C428.662 18.6266 428.576 19.6162 428.563 20.6182V24.3848C428.576 25.3867 428.662 26.3763 428.823 27.3535C428.996 28.3307 429.256 29.2646 429.603 30.1553C429.937 31.0459 430.357 31.8685 430.864 32.623C431.384 33.3776 432.002 34.0332 432.72 34.5898C433.425 35.1465 434.229 35.5856 435.132 35.9072C436.047 36.2165 437.062 36.3711 438.175 36.3711C439.474 36.3711 440.649 36.167 441.7 35.7588C442.764 35.3382 443.686 34.7507 444.465 33.9961C445.232 33.2539 445.856 32.3633 446.339 31.3242C446.821 30.2728 447.143 29.1224 447.304 27.873ZM459.104 23.457L467.269 36H471.443L461.368 20.8037L470.812 8.98438H466.638L458.715 18.9111L456.099 22.1768V8.98438H452.592V36H456.099V26.8711L459.104 23.457Z" fill="black"/>
</g>
<defs>
<clipPath id="clip0">
<rect width="747" height="312" fill="white"/>
</clipPath>
</defs>
</svg>
